<svg width="40" height="40" viewBox="0 0 40 40" fill="none" xmlns="http://www.w3.org/2000/svg">
<path d="M19.9806 39.9008C31.0155 39.9008 39.9611 30.9687 39.9611 19.9504C39.9611 8.9321 31.0155 0 19.9806 0C8.9456 0 0 8.9321 0 19.9504C0 30.9687 8.9456 39.9008 19.9806 39.9008Z" fill="white"/>
<path fill-rule="evenodd" clip-rule="evenodd" d="M19.9806 39.1601C30.6075 39.1601 39.2204 30.5586 39.2204 19.9504C39.2204 9.34225 30.6075 0.740741 19.9806 0.740741C9.35364 0.740741 0.740741 9.34225 0.740741 19.9504C0.740741 30.5586 9.35364 39.1601 19.9806 39.1601ZM39.9611 19.9504C39.9611 30.9687 31.0155 39.9008 19.9806 39.9008C8.9456 39.9008 0 30.9687 0 19.9504C0 8.9321 8.9456 0 19.9806 0C31.0155 0 39.9611 8.9321 39.9611 19.9504Z" fill="#E5E7EB"/>
<path d="M12.3472 13.697H28.0434C28.488 13.697 28.8876 13.8583 29.1997 14.1257L20.2731 20.9267L11.36 14.1266C11.6321 13.8923 11.9697 13.7327 12.348 13.6979H12.3472V13.697ZM29.794 15.1861C29.8425 17.8374 29.8127 21.1559 29.8127 23.831C29.8152 24.3013 29.6299 24.7532 29.2979 25.0868C28.9659 25.4204 28.5144 25.6082 28.0434 25.6087H12.5147C12.0426 25.6089 11.5897 25.4216 11.2561 25.0881C10.9224 24.7547 10.7353 24.3024 10.736 23.831C10.7402 21.1415 10.7402 17.8662 10.7547 15.1954L19.8922 22.184C20.1047 22.3725 20.4533 22.3725 20.6659 22.184L29.794 15.1861Z" fill="url(#paint0_linear)"/>
<defs>
<linearGradient id="paint0_linear" x1="20.2789" y1="13.697" x2="20.2789" y2="25.6087" gradientUnits="userSpaceOnUse">
<stop stop-color="#5BDAD5"/>
<stop offset="1" stop-color="#0947A0" stop-opacity="0.597"/>
</linearGradient>
</defs>
</svg>
