<svg width="38" height="34" viewBox="0 0 38 34" fill="none" xmlns="http://www.w3.org/2000/svg">
<g clip-path="url(#clip0)">
<path fill-rule="evenodd" clip-rule="evenodd" d="M29.5122 12.5464C30.5336 12.7641 31.777 13.2215 33.2425 13.9183C32.7984 15.704 32.2877 16.9889 31.7104 17.7729C30.8444 18.9488 29.2458 19.3408 28.4464 19.4715C28.0467 19.5368 26.548 19.5368 25.0242 19.5368C23.5005 19.5368 21.9517 19.5368 21.4521 19.6021C20.453 19.7328 19.4538 20.1901 19.587 21.1701C19.6758 21.8234 19.9867 23.13 20.5196 25.0899C20.0755 24.2624 19.698 23.6091 19.3872 23.13C18.9209 22.4114 18.1215 20.9087 19.587 19.5368C20.4012 18.7746 22.6135 18.698 24.7618 18.6236C26.4803 18.5641 28.1578 18.506 29.0459 18.0995C30.3782 17.4898 31.1997 16.5751 31.5106 15.3556C31.2885 15.1814 31.0443 14.9418 30.7778 14.637C30.5114 14.3321 30.3338 13.8312 30.2449 13.1344C29.0015 12.9601 27.8913 12.6988 26.9143 12.3504L26.8557 12.3295C25.4047 11.8121 23.7729 11.2302 22.9842 10.5211C22.1849 9.80247 20.0533 9.08383 19.0541 9.80247C18.388 10.2816 18.3214 11.6753 18.8543 13.9837C17.8773 14.1143 16.8115 14.4192 15.6569 14.8983C14.5023 15.3774 13.7029 16.2267 13.2589 17.4462C13.7093 17.1243 14.0867 16.8847 14.3913 16.7276C14.6958 16.5704 15.1843 16.3962 15.8567 16.2049C14.9686 17.0324 14.3691 17.9906 14.0582 19.0795C13.8757 19.7188 13.8692 20.3582 14.0388 20.9975C14.1183 21.2972 14.3246 21.7467 14.6577 22.346C14.671 21.8858 14.6932 21.5374 14.7243 21.3007C14.7555 21.0641 14.8221 20.7374 14.9242 20.3208C15.4126 21.6274 16.0566 22.9122 16.8559 24.1753C17.6553 25.4384 17.8995 27.5507 17.5886 30.5124C16.7449 29.2058 15.7457 28.1605 14.5911 27.3765C14.0144 26.9849 13.3416 26.6151 12.6294 26.2235C11.2029 25.4392 9.61804 24.5679 8.32956 23.2607C7.04173 21.954 6.39781 20.3861 6.39781 18.5568L5.53185 19.9288C5.08777 17.7511 5.08777 16.0307 5.53185 14.7676C5.97593 13.5046 6.57544 12.2197 7.33038 10.9131L5.39863 11.9584C5.62067 11.218 6.13136 10.4122 6.93071 9.54115C8.12972 8.23453 9.32874 7.51589 13.3255 5.81728C15.9899 4.68488 18.1437 3.53069 19.7868 2.35474C19.7584 3.40159 19.6918 4.18557 19.587 4.70665C19.4845 5.21635 19.2403 5.97854 18.8543 6.99324C20.7194 6.99324 23.5171 8.29986 24.3165 9.0185C24.6575 9.32515 24.8773 9.71508 25.0897 10.0918C25.375 10.598 25.647 11.0804 26.1816 11.3051C26.4079 11.4002 26.6302 11.503 26.8591 11.6088C27.5736 11.9392 28.3519 12.299 29.5122 12.5464ZM20.5862 6.66658C20.2605 6.52967 19.9274 6.46434 19.587 6.47059L19.9867 5.42529C20.5269 5.19876 21.0598 4.93743 21.5854 4.64132C22.1109 4.34521 22.6216 4.01856 23.1174 3.66136C23.0566 4.25045 22.9011 4.79488 22.6512 5.29463C22.4012 5.79439 22.0237 6.42592 21.5188 7.18923C21.2228 6.97771 20.9119 6.8035 20.5862 6.66658ZM21.3855 12.0237C20.9055 11.9125 20.3504 11.6294 19.7202 11.1744C20.8304 10.826 21.6298 10.7389 22.1183 10.9131C22.6067 11.0873 23.0286 11.4575 23.3839 12.0237C22.5317 12.135 21.8655 12.135 21.3855 12.0237Z" fill="#303030"/>
<path fill-rule="evenodd" clip-rule="evenodd" d="M34.6335 13.2759L34.4047 14.1963C33.9509 16.0208 33.3967 17.4867 32.6802 18.4597C31.5115 20.0468 29.4706 20.4934 28.6431 20.6287C28.3325 20.6794 27.7505 20.694 27.173 20.7017C26.5498 20.71 25.7878 20.71 25.0306 20.71H25.0242C24.26 20.71 23.5004 20.71 22.8697 20.718C22.2084 20.7265 21.7745 20.7435 21.6103 20.765C21.2084 20.8175 20.9281 20.9247 20.7945 21.0192C20.7871 21.0245 20.7807 21.0293 20.7753 21.0335C20.856 21.6075 21.1446 22.8353 21.6754 24.7876L19.461 25.6363C19.0238 24.8216 18.6636 24.2001 18.378 23.7598C18.1208 23.3635 17.6814 22.6228 17.5743 21.7128C17.4581 20.7252 17.7464 19.638 18.761 18.6881C19.1432 18.3303 19.6192 18.1127 20.0607 17.9693C20.5121 17.8225 21.0114 17.7268 21.5122 17.6597C22.4954 17.528 23.6351 17.4885 24.6822 17.4523L24.7196 17.451C25.5889 17.4209 26.3971 17.3925 27.0967 17.3241C27.8241 17.2531 28.2918 17.1499 28.5401 17.0363C29.3264 16.6764 29.8269 16.2218 30.1185 15.6746C30.0354 15.5867 29.9524 15.4952 29.8696 15.4004C29.5642 15.051 29.3645 14.6213 29.2331 14.1616C28.2507 13.9856 27.3403 13.7506 26.5055 13.4529M26.5055 13.4529L26.447 13.432L26.4273 13.425C26.0313 13.2838 25.6074 13.1327 25.1845 12.9721L23.5418 13.1866C22.6361 13.3049 21.8002 13.3254 21.1104 13.1654C20.6753 13.0646 20.2388 12.8787 19.8048 12.6328C19.8566 12.9579 19.9279 13.3211 20.021 13.7245L20.3092 14.9731L19.0159 15.1461C18.1675 15.2595 17.2052 15.5297 16.123 15.9787C16.1035 15.9868 16.0842 15.995 16.065 16.0034L16.6807 17.0554C16.1864 17.5159 15.8086 18.0145 15.5378 18.5539L16.0473 19.9168C16.5059 21.1435 17.113 22.3567 17.8723 23.5565C18.8952 25.1729 19.0938 27.6298 18.7786 30.6325L18.4251 34.0004L16.578 31.1401C15.8095 29.95 14.9177 29.0252 13.9102 28.3411C13.3891 27.9872 12.7692 27.6453 12.0445 27.2469L11.9907 27.2173C10.5945 26.4498 8.88052 25.5076 7.4695 24.076C6.7555 23.3516 6.20853 22.552 5.83081 21.6841L4.95338 23.0742L4.35887 20.1588C3.89765 17.8971 3.85593 15.9353 4.40098 14.3851C4.48109 14.1572 4.56585 13.9291 4.65524 13.7006L3.43054 14.3633L4.25102 11.6273C4.54288 10.654 5.17893 9.69628 6.04157 8.75622C7.4305 7.24264 8.84878 6.44115 12.8498 4.7407C15.4646 3.62944 17.5332 2.51521 19.0817 1.40694L21.0475 0L20.9827 2.38594C20.97 2.85059 20.9499 3.27735 20.9207 3.66244C20.9437 3.64968 20.9666 3.63684 20.9895 3.62393C21.4757 3.34999 21.9489 3.04736 22.4093 2.71573L24.5791 1.15255L24.3076 3.77961C24.2333 4.49832 24.0415 5.17876 23.7251 5.81129C23.5584 6.14468 23.3468 6.51929 23.0937 6.93292C23.9248 7.31457 24.6824 7.75585 25.1248 8.15357C25.6123 8.59186 25.9139 9.12802 26.112 9.48035C26.1204 9.49527 26.1286 9.50986 26.1366 9.5241C26.2892 9.79471 26.3822 9.95403 26.4814 10.0773C26.5652 10.1815 26.6169 10.2116 26.6528 10.2266C26.8987 10.33 27.1373 10.4403 27.3603 10.5434L27.3692 10.5475C28.0715 10.8722 28.7467 11.1824 29.7663 11.3998C30.9167 11.6451 32.2553 12.145 33.7644 12.8626L34.6335 13.2759M22.4517 7.93445C22.0881 7.77219 21.6985 7.61722 21.3015 7.48155C20.9868 7.37399 20.6674 7.27855 20.3525 7.20122C20.2596 7.17839 20.167 7.15713 20.0751 7.13761C19.9137 7.10333 19.7543 7.0744 19.5981 7.05165C19.3393 7.01392 19.0894 6.99317 18.8543 6.99317C18.9485 6.74563 19.0342 6.51311 19.1115 6.29562C19.1689 6.13397 19.2217 5.98062 19.2699 5.83558C19.3432 5.61463 19.4057 5.41295 19.4573 5.23054C19.5132 5.03338 19.5564 4.85873 19.587 4.70658C19.5959 4.66224 19.6046 4.616 19.6129 4.56786C19.6281 4.48054 19.6423 4.38696 19.6557 4.28713C19.6741 4.1498 19.6907 4.00062 19.7056 3.8396C19.7442 3.42366 19.7712 2.92868 19.7869 2.35466C19.4042 2.62853 18.9939 2.9012 18.5558 3.1727C17.1129 4.06702 15.3695 4.94852 13.3255 5.81721C9.32876 7.51582 8.12975 8.23446 6.93073 9.54108C6.78537 9.69948 6.64955 9.85573 6.52328 10.0098C5.95519 10.703 5.58031 11.3526 5.39865 11.9583L7.3304 10.913C6.96709 11.5418 6.63977 12.1656 6.34845 12.7843C6.03444 13.4513 5.76224 14.1123 5.53188 14.7676C5.2176 15.6614 5.12574 16.7844 5.25629 18.1363C5.26959 18.2741 5.28521 18.4142 5.30313 18.5568C5.35785 18.9919 5.4341 19.4492 5.53188 19.9287L6.39783 18.5568C6.39783 18.9642 6.42977 19.3586 6.49365 19.7401C6.53134 19.9652 6.58016 20.1858 6.64011 20.4019C6.93467 21.4638 7.49783 22.4167 8.32958 23.2606C9.61806 24.5679 11.2029 25.4392 12.6294 26.2234C13.3416 26.615 14.0144 26.9849 14.5911 27.3764C15.2839 27.8469 15.9208 28.4114 16.5017 29.07C16.8889 29.509 17.2512 29.9897 17.5887 30.5123C17.6577 29.8545 17.6994 29.2385 17.7136 28.6645C17.7636 26.6542 17.4777 25.1577 16.8559 24.1752C16.4886 23.5947 16.154 23.0097 15.8523 22.42C15.8452 22.4062 15.8382 22.3923 15.8312 22.3785C15.7427 22.2047 15.6571 22.0305 15.5744 21.8559C15.4995 21.6978 15.4269 21.5394 15.3567 21.3807C15.2611 21.1647 15.1699 20.9482 15.083 20.731C15.0283 20.5945 14.9754 20.4577 14.9242 20.3207C14.8811 20.4963 14.8444 20.656 14.814 20.7996C14.7722 20.9967 14.7423 21.1638 14.7243 21.3007C14.6932 21.5373 14.671 21.8858 14.6577 22.346C14.3998 21.8818 14.2179 21.5076 14.112 21.2232C14.0812 21.1403 14.0568 21.0651 14.0389 20.9974C14.0095 20.8867 13.9854 20.7759 13.9665 20.6651C13.9336 20.4711 13.9169 20.2771 13.9163 20.0832C13.9154 19.7486 13.9627 19.414 14.0582 19.0794C14.1592 18.7256 14.2907 18.3857 14.4526 18.0595C14.553 17.8572 14.6652 17.6603 14.789 17.4686C14.8594 17.3596 14.9337 17.2523 15.0117 17.1467C15.2562 16.8159 15.5378 16.502 15.8567 16.2048C15.7392 16.2383 15.6273 16.2712 15.5211 16.3035C15.237 16.3901 14.9931 16.4729 14.7893 16.552C14.7211 16.5785 14.6574 16.6046 14.5981 16.6302C14.5217 16.6633 14.4527 16.6958 14.3913 16.7275C14.1497 16.8522 13.8622 17.0287 13.5288 17.2571C13.4419 17.3166 13.352 17.3796 13.2589 17.4461C13.4515 16.9171 13.711 16.4577 14.0374 16.068C14.3109 15.7414 14.6314 15.4637 14.9989 15.235C15.2036 15.1075 15.423 14.9953 15.6569 14.8982C16.3649 14.6044 17.0396 14.3761 17.6808 14.2134C18.0853 14.1107 18.4764 14.0341 18.8543 13.9836C18.7587 13.5698 18.6825 13.1853 18.6255 12.8303C18.5621 12.4356 18.5226 12.0772 18.5068 11.7552C18.4755 11.1142 18.5385 10.6171 18.6958 10.264C18.785 10.0639 18.9044 9.91007 19.0541 9.8024C19.5877 9.41866 20.4441 9.44474 21.2482 9.66181C21.6674 9.77499 22.0725 9.9401 22.41 10.1261C22.6375 10.2514 22.8343 10.3862 22.9842 10.521C23.3206 10.8235 23.8104 11.1028 24.3742 11.3638C24.4244 11.3871 24.4752 11.4102 24.5265 11.4331C24.954 11.6244 25.4183 11.8058 25.8869 11.9794C26.1125 12.063 26.339 12.1447 26.563 12.2249C26.6612 12.26 26.7588 12.2949 26.8557 12.3294L26.9143 12.3503C27.6675 12.6189 28.4999 12.8358 29.4115 13.0009C29.6823 13.0499 29.9601 13.0944 30.2449 13.1343C30.2891 13.4805 30.3551 13.7784 30.4431 14.0279C30.5322 14.2805 30.6438 14.4835 30.7778 14.6369C31.0443 14.9418 31.2885 15.1813 31.5106 15.3555C31.1997 16.5751 30.3782 17.4897 29.0459 18.0994C28.9617 18.138 28.8704 18.1734 28.7726 18.206C28.6157 18.2583 28.4421 18.3033 28.2545 18.3422C27.3894 18.5217 26.2263 18.5721 25.0242 18.6144C24.9369 18.6175 24.8494 18.6205 24.7618 18.6235C23.5601 18.6651 22.3385 18.7074 21.3526 18.87C20.576 18.9981 19.9458 19.2009 19.587 19.5367C18.9666 20.1175 18.7521 20.7217 18.7464 21.2799C18.7386 22.0404 19.1183 22.7155 19.3872 23.1299C19.698 23.609 20.0755 24.2623 20.5196 25.0899C20.2738 24.1859 20.0753 23.4209 19.9239 22.7949C19.7472 22.0636 19.6349 21.522 19.587 21.17C19.5201 20.6777 19.739 20.3173 20.1001 20.0639C20.4578 19.813 20.955 19.6671 21.4522 19.6021C21.9267 19.54 23.3476 19.5369 24.7947 19.5367C24.8711 19.5367 24.9477 19.5367 25.0242 19.5367C26.548 19.5367 28.0467 19.5367 28.4464 19.4714C28.6301 19.4414 28.8561 19.3975 29.1056 19.3335C29.9419 19.1191 31.0435 18.6785 31.7104 17.7728C32.2877 16.9888 32.7984 15.704 33.2425 13.9183C32.6043 13.6148 32.0082 13.3567 31.4542 13.1441C31.3464 13.1027 31.2401 13.0631 31.1355 13.0251C30.8451 12.9198 30.5669 12.8277 30.3011 12.749C30.0248 12.6671 29.7619 12.5995 29.5122 12.5463C28.5024 12.331 27.782 12.0306 27.1412 11.7385C27.1222 11.7299 27.1033 11.7212 27.0844 11.7126C27.0844 11.7126 27.0844 11.7126 27.0844 11.7126C27.0084 11.6778 26.9334 11.6431 26.8591 11.6088C26.6303 11.5029 26.4078 11.4001 26.1816 11.305C25.7933 11.1418 25.5436 10.8427 25.3267 10.4972C25.2449 10.367 25.1678 10.2303 25.0897 10.0918C24.8774 9.71501 24.6576 9.32508 24.3165 9.01843C23.9784 8.7145 23.2829 8.3054 22.4517 7.93445ZM20.7601 6.74382C20.8643 6.79268 20.9669 6.84549 21.0679 6.90224C21.2218 6.98872 21.3721 7.08436 21.5188 7.18916C21.6861 6.93627 21.8394 6.69785 21.9787 6.47388C22.0391 6.37679 22.0968 6.28242 22.152 6.19076C22.3212 5.90948 22.4656 5.6538 22.5853 5.42372C22.6081 5.37973 22.6301 5.33668 22.6512 5.29456C22.9011 4.79481 23.0566 4.25038 23.1175 3.66129C22.6452 4.00152 22.1594 4.31405 21.6602 4.59886C21.6353 4.61306 21.6103 4.62719 21.5854 4.64125C21.3013 4.80128 21.0152 4.95115 20.7268 5.09086C20.5475 5.17774 20.3674 5.2607 20.1865 5.33972C20.12 5.36875 20.0534 5.39725 19.9867 5.42522L19.587 6.47052C19.8228 6.46619 20.0551 6.49621 20.2839 6.56058C20.3853 6.58914 20.4861 6.62444 20.5862 6.66651C20.6446 6.69108 20.7026 6.71685 20.7601 6.74382ZM21.3273 12.0094C20.8608 11.8893 20.3251 11.611 19.7202 11.1744C20.263 11.004 20.7315 10.8961 21.1257 10.8507C21.2501 10.8364 21.3671 10.8282 21.4767 10.8264C21.7301 10.822 21.944 10.8509 22.1183 10.913C22.1365 10.9195 22.1546 10.9263 22.1726 10.9333C22.273 10.9725 22.3706 11.0202 22.4652 11.0763C22.8094 11.2804 23.1157 11.5961 23.3839 12.0237C23.2985 12.0348 23.215 12.0448 23.1334 12.0537C22.6446 12.1071 22.2228 12.1205 21.8679 12.0938C21.6904 12.0804 21.5296 12.057 21.3855 12.0237C21.3662 12.0192 21.3468 12.0144 21.3273 12.0094Z" fill="white"/>
</g>
<defs>
<clipPath id="clip0">
<rect width="38" height="34" fill="white"/>
</clipPath>
</defs>
</svg>
