<svg width="40" height="40" viewBox="0 0 40 40" fill="none" xmlns="http://www.w3.org/2000/svg">
<path d="M18.6914 0.0234375C18.6055 0.03125 18.332 0.0585938 18.0859 0.078125C12.4102 0.589844 7.09375 3.65234 3.72656 8.35938C1.85156 10.9766 0.652344 13.9453 0.199219 17.0898C0.0390625 18.1875 0.0195312 18.5117 0.0195312 20C0.0195312 21.4883 0.0390625 21.8125 0.199219 22.9102C1.28516 30.4141 6.625 36.7188 13.8672 39.0547C15.1641 39.4727 16.5312 39.7578 18.0859 39.9297C18.6914 39.9961 21.3086 39.9961 21.9141 39.9297C24.5977 39.6328 26.8711 38.9688 29.1133 37.8242C29.457 37.6484 29.5234 37.6016 29.4766 37.5625C29.4453 37.5391 27.9805 35.5742 26.2227 33.1992L23.0273 28.8828L19.0234 22.957C16.8203 19.6992 15.0078 17.0352 14.9922 17.0352C14.9766 17.0312 14.9609 19.6641 14.9531 22.8789C14.9414 28.5078 14.9375 28.7344 14.8672 28.8672C14.7656 29.0586 14.6875 29.1367 14.5234 29.2227C14.3984 29.2852 14.2891 29.2969 13.6992 29.2969H13.0234L12.8438 29.1836C12.7266 29.1094 12.6406 29.0117 12.582 28.8984L12.5 28.7227L12.5078 20.8906L12.5195 13.0547L12.6406 12.9023C12.7031 12.8203 12.8359 12.7148 12.9297 12.6641C13.0898 12.5859 13.1523 12.5781 13.8281 12.5781C14.625 12.5781 14.7578 12.6094 14.9648 12.8359C15.0234 12.8984 17.1914 16.1641 19.7852 20.0977C22.3789 24.0312 25.9258 29.4023 27.668 32.0391L30.832 36.832L30.9922 36.7266C32.4102 35.8047 33.9102 34.4922 35.0977 33.125C37.625 30.2227 39.2539 26.6836 39.8008 22.9102C39.9609 21.8125 39.9805 21.4883 39.9805 20C39.9805 18.5117 39.9609 18.1875 39.8008 17.0898C38.7148 9.58594 33.375 3.28125 26.1328 0.945312C24.8555 0.53125 23.4961 0.246094 21.9727 0.0742188C21.5977 0.0351562 19.0156 -0.0078125 18.6914 0.0234375ZM26.8711 12.1094C27.0586 12.2031 27.2109 12.3828 27.2656 12.5703C27.2969 12.6719 27.3047 14.8438 27.2969 19.7383L27.2852 26.7617L26.0469 24.8633L24.8047 22.9648V17.8594C24.8047 14.5586 24.8203 12.7031 24.8438 12.6133C24.9062 12.3945 25.043 12.2227 25.2305 12.1211C25.3906 12.0391 25.4492 12.0312 26.0625 12.0312C26.6406 12.0312 26.7422 12.0391 26.8711 12.1094Z" fill="#0370F3"/>
<path d="M30.6367 36.9179C30.5 37.0038 30.4571 37.0624 30.5781 36.996C30.6641 36.9452 30.8047 36.8398 30.7813 36.8358C30.7696 36.8358 30.7031 36.8749 30.6367 36.9179Z" fill="#0370F3"/>
<path d="M30.3672 37.0939C30.2969 37.1486 30.2969 37.1525 30.3828 37.1095C30.4297 37.0861 30.4688 37.0587 30.4688 37.0509C30.4688 37.0197 30.4492 37.0275 30.3672 37.0939Z" fill="#0370F3"/>
<path d="M30.1719 37.2111C30.1016 37.2657 30.1016 37.2697 30.1875 37.2267C30.2344 37.2032 30.2735 37.1759 30.2735 37.1681C30.2735 37.1368 30.2539 37.1447 30.1719 37.2111Z" fill="#0370F3"/>
<path d="M29.9766 37.3282C29.9063 37.3829 29.9063 37.3868 29.9922 37.3439C30.0391 37.3204 30.0781 37.2931 30.0781 37.2853C30.0781 37.254 30.0586 37.2618 29.9766 37.3282Z" fill="#0370F3"/>
<path d="M29.6797 37.4844C29.5313 37.5625 29.5391 37.5938 29.6875 37.5196C29.7539 37.4844 29.8047 37.4493 29.8047 37.4414C29.8047 37.4141 29.8008 37.418 29.6797 37.4844Z" fill="#0370F3"/>
</svg>
