<svg width="40" height="40" viewBox="0 0 40 40" fill="none" xmlns="http://www.w3.org/2000/svg">
<path d="M0 20C0 27.9375 4.625 34.75 11.25 38L1.75 11.875C0.625 14.375 0 17.125 0 20ZM33.5 19C33.5 16.5 32.625 14.8125 31.875 13.5C30.875 11.875 29.9375 10.4375 29.9375 8.8125C29.9375 7 31.3125 5.25 33.3125 5.25C33.375 5.25 33.5 5.25 33.5625 5.25C29.9375 2 25.1875 0 20 0C13 0 6.875 3.5625 3.3125 9C3.8125 9 4.25 9 4.625 9C6.6875 9 9.9375 8.75 9.9375 8.75C11 8.6875 11.125 10.25 10.0625 10.375C10.0625 10.375 9 10.5 7.75 10.5625L15 32.3125L19.375 19.1875L16.25 10.625C15.1875 10.5625 14.125 10.4375 14.125 10.4375C13.0625 10.375 13.1875 8.75 14.25 8.8125C14.25 8.8125 17.5625 9.0625 19.5 9.0625C21.5625 9.0625 24.8125 8.8125 24.8125 8.8125C25.875 8.75 26 10.3125 24.9375 10.4375C24.9375 10.4375 23.875 10.5625 22.625 10.625L30 32.125L32 25.4375C32.8125 22.6875 33.5 20.6875 33.5 19Z" fill="#859A00"/>
<path d="M20.375 21.75L14.375 39.1875C16.1875 39.6875 18.0625 40 20 40C22.3125 40 24.5625 39.625 26.625 38.875C26.5625 38.8125 26.5 38.6875 26.5 38.625L20.375 21.75ZM37.5625 10.375C37.625 11 37.6875 11.6875 37.6875 12.4375C37.6875 14.4375 37.3125 16.75 36.1875 19.625L30.0625 37.3125C36 33.8125 40 27.375 40 20C40 16.5 39.125 13.25 37.5625 10.375Z" fill="#859A00"/>
</svg>
