<svg width="116" height="30" viewBox="0 0 116 30" fill="none" xmlns="http://www.w3.org/2000/svg">
<g clip-path="url(#clip0_5616_4339)">
<mask id="mask0_5616_4339" style="mask-type:luminance" maskUnits="userSpaceOnUse" x="0" y="0" width="29" height="30">
<path d="M28.851 0.953491H0V29.0129H28.851V0.953491Z" fill="white"/>
</mask>
<g mask="url(#mask0_5616_4339)">
<path fill-rule="evenodd" clip-rule="evenodd" d="M17.8061 17.8954C17.8061 17.8954 20.2022 12.7221 24.8176 9.32066L25.3783 9.29911C25.388 8.85844 25.5034 8.43238 25.7156 8.05427C25.7156 8.05427 25.0517 8.04683 24.383 7.48572L22.188 10.4039C22.188 10.4039 17.8452 15.4928 16.7978 17.4739C16.8022 17.4743 16.6741 17.9888 17.8061 17.8954Z" fill="white"/>
<path fill-rule="evenodd" clip-rule="evenodd" d="M13.4916 15.8351C13.4916 15.8351 13.2246 12.6276 9.7598 11.3889C6.29502 10.1502 3.34633 11.6667 2.23098 13.3332C1.11562 14.9998 0.0684174 18.0843 2.70648 21.3343C2.70648 21.3343 4.8055 24.872 9.53599 24.1256C9.53599 24.1256 10.667 24.0088 10.8529 23.1478L13.4916 15.8351Z" fill="#9F1239"/>
<path fill-rule="evenodd" clip-rule="evenodd" d="M18.7133 16.3303C18.7133 16.3303 16.0001 14.2819 13.5095 15.1811C13.5095 15.1811 10.6084 16.0974 9.85571 19.4826C9.85571 19.4826 8.97935 24.2017 13.5136 26.6883C13.5136 26.6883 16.9263 28.5036 19.6324 26.5713C19.6324 26.5713 23.3671 24.2718 22.8599 20.475C22.8615 20.4754 22.4388 17.9836 18.7133 16.3303Z" fill="#F43F5E"/>
<path fill-rule="evenodd" clip-rule="evenodd" d="M11.9582 14.9023C11.9582 14.9023 11.272 14.6769 11.4863 13.8122L19.65 9.23535L20.1446 9.59157L11.9582 14.9023Z" fill="white"/>
<path fill-rule="evenodd" clip-rule="evenodd" d="M18.1254 3.33338C20.3562 3.61116 28.1872 6.63571 28.4734 6.91599C25.7321 8.02182 13.8246 5.84182 12.0737 5.58538C13.5881 3.2795 15.8946 3.0556 18.1254 3.33338Z" fill="#28A745" fill-opacity="0.8"/>
<path fill-rule="evenodd" clip-rule="evenodd" d="M28.4371 6.90722L28.4545 6.92305C28.2703 7.33538 27.5302 8.05377 27.5302 8.05377C24.2132 11.3916 19.0271 9.33983 19.0271 9.33983C14.0755 8.05272 12.0737 5.58533 12.0737 5.58533C13.8216 5.85116 26.39 7.50083 28.4371 6.90722Z" fill="#28A745"/>
<g filter="url(#filter0_f_5616_4339)">
<path fill-rule="evenodd" clip-rule="evenodd" d="M11.4223 16.8528C11.4223 16.8528 8.44998 14.1027 7.99551 13.7191C7.99551 13.7191 7.3767 16.2131 10.6879 17.5976C10.6879 17.5976 11.2474 17.5579 11.4223 16.8528Z" fill="white"/>
</g>
<g filter="url(#filter1_f_5616_4339)">
<path fill-rule="evenodd" clip-rule="evenodd" d="M18.3826 19.1333C18.3826 19.1333 15.309 17.4916 17.2273 16.6743C17.2273 16.6743 20.9385 16.8457 20.8001 19.803C20.8001 19.803 20.7336 20.2875 18.3826 19.1333Z" fill="white"/>
</g>
</g>
<path fill-rule="evenodd" clip-rule="evenodd" d="M71.7985 20.2463C69.7345 22.007 67.2165 22.9793 64.6143 22.9793C61.7249 22.9793 59.9843 21.774 59.4824 19.8112C57.6532 21.6497 55.3812 22.9172 53.5715 22.9172C51.7895 22.9172 51.1955 21.7683 51.1955 20.4951C51.1955 18.7251 52.8212 15.0918 52.8212 13.8187C52.8212 13.3529 52.6024 13.1976 52.321 13.1976C51.3831 13.1976 49.3822 15.775 47.0687 21.3957C46.6622 22.3893 46.2871 22.8862 44.7864 22.8862C44.1299 22.8862 43.1607 22.7931 42.0352 22.6688C42.2823 22.0847 42.5536 21.3183 42.8352 20.4328C40.1399 22.8491 37.2052 23.942 33.9731 23.942C28.3768 23.942 25.313 20.4641 25.313 15.3403C25.313 7.91856 31.7533 0 39.6631 0C42.5081 0 45.0717 1.14897 45.103 4.59587C45.103 7.79433 42.258 10.0302 39.6006 10.0302C37.881 10.0302 37.1932 9.31594 37.1932 7.67011C37.5059 7.79433 37.9123 7.8875 38.2875 7.8875C39.9132 7.8875 41.195 6.45906 41.195 4.78219C41.195 3.29164 40.3196 2.48426 38.7564 2.48426C34.8797 2.48426 30.5653 8.97439 30.5653 14.9987C30.5653 18.7251 32.4099 20.8988 35.9427 20.8988C38.6626 20.8988 41.4138 19.5946 43.8524 16.8619C43.8544 16.8695 43.8563 16.8771 43.8582 16.8847C45.046 12.4152 46.1308 7.18672 46.1308 5.68272C46.1308 4.93746 46.0057 4.25428 45.6618 3.85059C47.0687 3.13637 48.5068 2.70163 49.5698 2.70163C50.4452 2.70163 50.9767 3.07427 50.9767 4.09902C50.9767 5.18588 49.9762 10.3718 48.7882 14.5639C51.5081 11.4897 53.978 9.87489 55.7287 9.87489C56.7603 9.87489 57.511 10.4649 57.511 11.8313C57.511 14.1603 55.791 18.0108 55.791 19.3772C55.791 19.7188 55.8853 19.8741 56.1351 19.8741C56.6387 19.8741 58.0636 18.7402 59.4478 17.3005C60.1199 13.6721 63.6205 9.87489 68.3034 9.87489C70.7417 9.87489 71.9613 10.6823 71.9613 12.3902C71.9613 15.4956 68.3034 17.5761 64.7392 17.5761H63.9579C63.8636 17.9177 63.8324 18.2903 63.8324 18.5698C63.8324 19.843 64.5206 20.6504 66.0208 20.6504C67.7095 20.6504 69.9291 19.843 72.3049 17.2345C72.3567 17.1831 72.4086 17.1411 72.4554 17.1138C73.6249 15.663 74.5245 14.2547 75.0002 13.1044C75.0939 12.8871 75.1251 12.7628 75.1251 12.6697C75.1251 12.2971 74.3126 12.0797 74.3126 11.1481C74.3126 10.4028 74.7816 9.19172 76.2505 7.91856C77.6264 10.1233 83.2228 10.0923 83.2228 12.9492C83.2228 15.0608 81.1906 18.2282 81.1906 19.4082C81.1906 19.7809 81.3467 19.9362 81.5659 19.9362C81.9831 19.9362 83.3065 19.0744 84.9305 17.4261C86.2249 15.866 87.2215 14.337 87.7312 13.1044C87.8249 12.8871 87.8561 12.7628 87.8561 12.6697C87.8561 12.2971 87.0436 12.0797 87.0436 11.1481C87.0436 10.4028 87.512 9.19172 88.9815 7.91856C90.3574 10.1233 95.9533 10.0923 95.9533 12.9492C95.9533 15.0608 93.9216 18.2282 93.9216 19.4082C93.9216 19.7809 94.0777 19.9362 94.2963 19.9362C94.8273 19.9362 96.8216 18.5438 99.0362 15.9137C99.5169 14.3906 99.9932 12.9101 99.9932 11.9866C99.9932 11.4586 99.8995 11.0239 99.6491 10.6823C100.837 10.1544 102.182 9.87489 102.994 9.87489C104.183 9.87489 104.683 10.4339 104.683 11.4586C104.683 13.3218 102.588 18.2593 102.588 19.4082C102.588 19.8741 102.776 20.0914 103.12 20.0914C104.026 20.0914 106.215 18.0419 107.434 15.2471C107.997 14.005 108.372 12.3902 108.372 11.5828C108.372 11.2723 108.341 10.8065 108.278 10.5271C109.278 10.0923 110.498 9.87489 111.248 9.87489C112.373 9.87489 113.03 10.2165 113.03 11.2723C113.03 12.4213 111.435 17.3898 110.154 20.8056C111.936 19.5635 114.312 17.5761 115.406 16.1166C115.562 15.9303 115.687 15.8371 115.781 15.8371C115.938 15.8371 116 15.9924 116 16.3029C116 17.5451 115.813 18.1661 115.281 18.7872C114.03 20.2777 111.779 22.2341 109.247 23.8488C106.934 28.3205 104.214 29.9663 102.869 29.9663C101.9 29.9663 101.244 28.1031 101.244 27.0473C101.244 26.3642 102.682 24.8426 104.526 23.7246C104.87 23.5073 105.058 23.3209 105.151 23.1346C105.433 22.6067 106.058 20.8677 106.371 19.7809C103.401 22.203 101.837 22.6999 100.274 22.6999C98.711 22.6999 98.0546 21.6441 98.0546 20.1535C98.0546 19.9162 98.0781 19.6554 98.1188 19.3769C96.0949 21.5259 93.8028 22.9172 91.9518 22.9172C90.2637 22.9172 89.6067 21.9236 89.6067 20.3709C89.6067 18.6008 91.5765 15.5266 91.5765 14.4708C91.5765 14.005 90.8889 13.8497 89.982 13.3839C88.6692 15.9303 86.8556 18.4146 84.7922 20.1535C84.7297 20.2156 84.6048 20.2467 84.5111 20.2467H84.5094C82.7203 21.8938 80.8086 22.9172 79.2208 22.9172C77.5327 22.9172 76.8763 21.9236 76.8763 20.3709C76.8763 18.6008 78.8455 15.5266 78.8455 14.4708C78.8455 14.005 78.1578 13.8497 77.251 13.3839C75.9382 15.9303 74.1246 18.4146 72.0617 20.1535C72.0032 20.2116 71.8899 20.2425 71.7985 20.2463ZM67.9593 12.4523C67.9593 11.8313 67.7095 11.4586 67.2405 11.4586C66.2087 11.4586 65.0208 13.1355 64.2702 16.2408C66.24 16.0545 67.9593 14.3466 67.9593 12.4523Z" fill="white"/>
</g>
<defs>
<filter id="filter0_f_5616_4339" x="1.94971" y="7.71912" width="15.4727" height="15.8785" filterUnits="userSpaceOnUse" color-interpolation-filters="sRGB">
<feFlood flood-opacity="0" result="BackgroundImageFix"/>
<feBlend mode="normal" in="SourceGraphic" in2="BackgroundImageFix" result="shape"/>
<feGaussianBlur stdDeviation="3" result="effect1_foregroundBlur_5616_4339"/>
</filter>
<filter id="filter1_f_5616_4339" x="10.5972" y="10.6743" width="16.2065" height="15.2296" filterUnits="userSpaceOnUse" color-interpolation-filters="sRGB">
<feFlood flood-opacity="0" result="BackgroundImageFix"/>
<feBlend mode="normal" in="SourceGraphic" in2="BackgroundImageFix" result="shape"/>
<feGaussianBlur stdDeviation="3" result="effect1_foregroundBlur_5616_4339"/>
</filter>
<clipPath id="clip0_5616_4339">
<rect width="116" height="30" fill="white"/>
</clipPath>
</defs>
</svg>
