<svg width="243" height="65" viewBox="0 0 243 65" fill="none" xmlns="http://www.w3.org/2000/svg">
<path d="M32.5491 65C50.5255 65 65.0983 50.4493 65.0983 32.5C65.0983 14.5507 50.5255 0 32.5491 0C14.5727 0 0 14.5507 0 32.5C0 50.4493 14.5727 65 32.5491 65Z" fill="white"/>
<path d="M20.114 22.3132H45.6837C46.4081 22.3132 47.0591 22.576 47.5674 23.0116L33.0256 34.0907L18.5059 23.013C18.9491 22.6313 19.499 22.3713 20.1154 22.3146H20.114V22.3132ZM48.5356 24.739C48.6145 29.058 48.5661 34.4641 48.5661 38.8218C48.5701 39.588 48.2683 40.3242 47.7274 40.8677C47.1865 41.4112 46.4511 41.7171 45.6837 41.7178H20.3868C19.6178 41.7182 18.8801 41.4131 18.3366 40.8698C17.793 40.3266 17.4882 39.5898 17.4893 38.8218C17.4962 34.4406 17.4962 29.105 17.5197 24.7542L32.4051 36.1389C32.7513 36.4459 33.3192 36.4459 33.6655 36.1389L48.5356 24.739Z" fill="url(#paint0_linear)"/>
<path d="M114.466 5.60262C114.009 5.05382 112.637 4.77943 111.905 5.00809L104.131 7.15753C103.353 7.34047 102.393 7.6606 101.524 7.3862C101.341 7.34047 101.158 7.249 100.929 7.20327C100.701 7.06607 100.426 6.97461 100.106 6.92887C99.4658 6.79167 98.8255 7.06607 98.3224 7.249C93.1089 9.12405 87.8496 11.182 82.7275 13.3315C82.3617 13.4687 81.9501 13.6059 81.7214 13.9717C81.5385 14.2461 81.5385 14.612 81.6757 14.9779C81.8586 15.4352 82.3159 15.8468 82.7733 15.9382C83.5965 16.1212 84.4196 15.801 85.1514 15.5266C89.2673 13.8345 93.5662 12.4625 97.9108 11.4564C98.1395 11.4107 98.2767 11.5936 98.231 11.7766L94.7553 21.792C94.5266 22.6152 94.2979 23.5299 93.7034 24.1702C92.9717 25.0391 91.9656 25.3592 90.868 25.7251C90.0905 25.9537 89.3588 26.2281 88.6728 26.6397C88.4441 26.7769 88.0783 27.0513 87.9411 27.4629C87.8953 27.6916 87.9411 27.966 88.0783 28.1947C88.2612 28.5148 88.6271 28.6977 88.9472 28.8349C89.6789 29.1093 91.8741 28.3319 92.743 27.966C92.8802 27.9203 93.0174 28.0575 92.9717 28.1947L87.1179 43.6524C86.935 44.064 86.7978 44.5213 86.7978 44.9786C86.8435 45.4359 87.0722 45.9847 87.6209 46.1677C87.7124 46.1677 87.8039 46.2134 87.8953 46.2134C88.5813 46.2134 89.1301 45.3902 89.4503 44.6127L94.9382 29.2008C95.3498 28.0575 95.8529 26.594 96.9505 25.7251C97.545 25.222 98.3224 24.9019 99.0999 24.6275L99.42 24.4903C99.7402 24.3531 100.106 24.2159 100.518 24.0787C101.707 23.6214 102.987 23.3012 104.085 22.6152C104.451 22.3866 105.182 21.9292 105.137 21.4262C105.045 20.4201 102.896 21.0603 102.347 21.2433C100.701 21.7463 99.0542 22.2494 97.4078 22.7524C97.2248 22.8439 97.0419 22.661 97.0877 22.478C97.9566 18.4536 101.341 10.9991 101.89 10.496C102.576 9.85577 103.582 9.67284 104.359 9.48991C105.823 9.21551 111.219 7.88926 112.637 7.61487C113.094 7.5234 113.689 7.3862 114.1 7.02034C114.878 6.38008 114.649 5.87702 114.466 5.60262Z" fill="white"/>
<path d="M109.243 30.2984C108.603 30.2984 108.191 30.9844 107.917 31.5789C106.682 34.1857 105.264 37.1583 104.944 40.2681C104.898 40.4968 104.898 40.6797 104.898 40.8627C104.853 41.6858 105.036 42.3261 105.401 42.7377C106.316 43.8353 107.871 43.5609 108.969 43.0121C110.523 42.2346 111.758 41.0456 112.993 39.8565C113.77 39.0791 115.051 37.5242 116.286 37.5242C116.469 37.5242 116.606 37.5699 116.743 37.6614C116.972 37.9358 117.063 38.2559 117.155 38.6217L117.2 38.6675C117.246 38.8047 117.246 38.8961 117.292 39.0333C117.749 40.5883 118.344 42.692 119.762 43.5152C120.356 43.8353 121.179 43.881 121.728 43.4237C121.728 43.378 121.774 43.378 121.774 43.3322C121.774 43.2865 121.728 43.195 121.682 43.1493C121.591 43.0121 121.454 42.8749 121.316 42.7377C120.585 41.9602 119.899 41.1828 119.533 40.0852C119.304 39.262 119.167 38.3931 119.076 37.5242C119.076 37.2498 119.03 36.9754 118.984 36.701V36.518C118.847 35.6491 118.664 34.0942 117.886 33.5911C117.612 33.4539 117.292 33.4082 116.926 33.5454C116.514 33.6826 116.149 34.0027 115.828 34.3229C114.091 36.015 112.307 37.7528 110.569 39.4907C110.158 39.8565 109.746 40.2681 109.243 40.4968C108.969 40.634 108.237 40.8627 107.825 40.7255C107.688 40.6797 107.597 40.5883 107.551 40.4968C107.231 39.7193 107.688 38.2101 107.962 37.2498C108.008 37.1126 108.054 36.9754 108.1 36.8382C108.42 35.6491 108.923 34.5058 109.517 33.4539L109.655 33.271C109.929 32.7679 110.249 32.2191 110.295 31.6246C110.295 31.2588 110.158 30.8472 109.883 30.5728C109.792 30.4356 109.563 30.2984 109.243 30.2984Z" fill="white"/>
<path d="M128.171 35.5119C129.04 34.7802 129.817 33.957 130.686 33.2253C130.915 33.0423 132.241 31.7618 132.012 32.8594C131.875 33.4539 131.143 34.0485 130.777 34.4601C130.274 35.0088 124.649 40.6797 122.5 42.7377C121.859 43.3322 121.174 44.1554 121.494 44.9786C121.722 45.6189 122.5 45.8933 123.186 45.7561C123.872 45.6646 124.421 45.253 124.969 44.8414C128.811 42.2346 130.96 41.7316 135.351 40.2681C136.174 39.9937 137.043 39.7193 137.82 39.3077C138.095 39.1705 139.467 38.4388 138.689 38.1644C138.415 38.0272 138.003 38.1187 137.683 38.1644C134.985 38.7132 132.287 39.4907 129.726 40.4511C129.405 40.5883 127.576 41.4114 127.393 40.8627C127.393 40.8169 127.393 40.7255 127.439 40.634C127.759 39.6736 132.698 34.7802 134.619 32.2649C134.985 31.7618 135.396 31.2588 135.534 30.6642C136.082 28.1489 133.156 28.6062 131.875 29.4294C129.954 30.6642 128.262 32.2191 126.936 34.0485C126.524 34.643 126.204 35.6948 126.89 35.9692C127.165 36.0607 127.393 36.015 127.622 35.8778C127.805 35.7863 127.988 35.6491 128.171 35.5119Z" fill="white"/>
<path d="M143.221 35.5119C144.09 34.7802 144.868 33.957 145.737 33.2253C145.965 33.0423 147.292 31.7618 147.063 32.8594C146.926 33.4539 146.194 34.0485 145.828 34.4601C145.325 35.0088 139.7 40.6797 137.551 42.7377C136.91 43.3322 136.224 44.1554 136.544 44.9786C136.773 45.6189 137.551 45.8933 138.236 45.7561C138.922 45.6646 139.471 45.253 140.02 44.8414C143.862 42.2346 146.011 41.7316 150.401 40.2681C151.225 39.9937 152.094 39.7193 152.871 39.3077C153.145 39.1705 154.517 38.4388 153.74 38.1644C153.466 38.0272 153.054 38.1187 152.734 38.1644C150.036 38.7132 147.337 39.4907 144.776 40.4511C144.456 40.5883 142.627 41.4114 142.444 40.8627C142.444 40.8169 142.444 40.7255 142.49 40.634C142.81 39.6736 147.749 34.7802 149.67 32.2649C150.036 31.7618 150.447 31.2588 150.584 30.6642C151.133 28.1489 148.206 28.6062 146.926 29.4294C145.005 30.6642 143.313 32.2191 141.987 34.0485C141.575 34.643 141.255 35.6948 141.941 35.9692C142.215 36.0607 142.444 36.015 142.673 35.8778C142.856 35.7863 143.038 35.6491 143.221 35.5119Z" fill="white"/>
<path d="M169.339 32.7222C169.294 32.1734 168.882 31.6246 168.333 31.5332C167.785 31.4874 167.282 31.899 166.87 32.2649C165.041 34.0027 162.8 36.6095 160.925 38.3473C160.559 38.7132 156.809 41.7773 156.809 40.4511C156.809 39.8565 158.684 36.4723 159.05 35.7863C159.37 35.329 159.644 34.7802 159.644 34.2314C159.644 33.6369 159.233 33.0423 158.684 33.0423C158.089 33.0423 157.723 33.6369 157.449 34.1399C156.58 35.832 155.391 38.1644 154.705 39.9023C154.431 40.5425 154.156 41.2285 154.339 41.8688C154.568 42.7834 155.528 43.378 156.443 43.378C157.403 43.4237 158.272 42.9664 159.05 42.4633C160.559 41.5029 161.794 40.2224 163.074 39.0333C163.577 38.576 164.492 37.4784 165.178 37.2955C166.047 37.0668 165.452 38.8961 165.269 39.3535C162.891 46.2134 161.153 50.7409 159.233 57.6923C158.958 58.7442 158.684 59.7503 158.455 60.8022C158.364 61.3967 158.272 62.037 158.455 62.5858C158.684 63.1346 159.324 63.5919 159.919 63.3632C160.284 63.226 160.513 62.8144 160.696 62.4943C161.153 61.6711 161.611 60.8936 162.022 60.0705C162.159 59.8418 162.297 59.5217 162.114 59.3387C161.794 58.9729 160.925 59.3387 160.879 58.8814C160.879 58.7899 160.879 58.7442 160.925 58.6527C163.623 50.055 166.367 42.9206 169.065 34.3229C169.248 33.8198 169.431 33.271 169.339 32.7222Z" fill="white"/>
<path d="M203.512 12.4168C203.375 11.9138 202.964 11.4564 202.46 11.4564C201.774 11.4564 201.363 12.1882 201.088 12.7827C197.155 21.4719 193.268 30.1612 189.335 38.8504C189.564 36.9296 190.067 35.0546 190.57 33.1795C192.171 26.8227 193.817 20.4658 195.463 14.1089C196.286 10.8619 197.155 7.56913 196.973 4.23063C196.927 2.85865 196.607 1.89826 195.235 1.3952C194 0.937867 192.674 1.44093 191.85 2.44705C190.478 4.1849 189.427 6.24288 188.375 8.20939C187.231 10.3131 186.18 12.5083 185.219 14.7035C184.945 15.3437 184.625 16.0297 184.35 16.7157C182.384 21.1061 180.463 25.5879 178.634 29.9325L173.374 42.1432C172.871 43.3322 172.734 44.4298 173.008 45.3902C173.054 45.4817 173.054 45.5731 173.146 45.6646C173.283 45.939 173.557 46.1219 173.923 46.1677C174.335 46.2134 174.929 46.0305 175.249 45.7561C175.752 45.2987 175.89 44.6127 176.073 44.064C178.817 35.146 189.152 10.9076 190.158 9.26125C190.661 8.39232 192.582 4.77943 193.817 5.23675C194.686 5.51115 194.183 7.02034 194.137 7.70633C193.908 9.81004 193.268 11.9138 192.857 13.9717C192.125 17.3102 191.256 20.6487 190.433 23.9415C188.832 30.6642 187.231 37.387 185.585 44.064C185.494 44.5213 185.356 45.0243 185.265 45.4817C185.082 46.3049 184.945 47.3567 185.631 47.8598C186.134 48.2256 186.911 48.0427 187.414 47.6311C187.872 47.2195 188.146 46.5793 188.42 45.9847C191.85 38.0729 195.326 30.1612 198.756 22.2494C199.076 21.5177 199.396 20.7402 199.945 20.1457C198.116 27.4629 196.287 34.7345 194.457 42.0517C194.091 43.5152 193.725 45.1615 194.594 46.3963C194.915 46.8994 195.509 47.2653 196.058 47.0366C196.652 46.7622 196.698 45.939 196.698 45.253C196.607 41.8688 197.43 38.5303 198.207 35.2375C199.488 30.1154 200.723 24.9933 202.003 19.8713C202.46 17.9505 202.918 16.0297 203.375 14.1089C203.512 13.5601 203.649 13.0113 203.558 12.5083C203.512 12.4625 203.512 12.4168 203.512 12.4168Z" fill="white"/>
<path d="M203.823 42.3261C204.281 44.0182 205.881 44.2926 207.162 43.2865C209.586 41.3657 211.232 38.7589 213.199 36.4266C213.336 36.2894 213.473 36.1522 213.656 36.0607C213.839 35.9692 214.068 35.9692 214.205 36.1522C214.342 36.2894 214.296 36.4723 214.296 36.6552C214.159 37.89 213.702 39.0791 213.244 40.2224C212.787 41.3657 212.376 42.5548 212.238 43.7896C212.101 44.8414 212.147 47.0366 213.382 47.5397C213.748 47.6768 214.296 47.3567 214.479 47.0366C214.662 46.625 214.434 45.9847 214.342 45.5274C214.022 43.7438 214.571 41.9145 215.211 40.2224C215.851 38.576 216.446 36.8382 217.04 35.146C217.452 33.957 218.001 32.7679 218.321 31.5332C218.687 30.3898 218.367 29.5209 217.681 29.338C216.674 29.0636 216.446 29.9325 215.988 30.4813C215.577 30.9844 215.165 31.6703 214.662 31.8075C214.205 31.899 213.519 31.4417 213.016 31.1673C211.69 30.4356 210.546 30.6185 209.449 31.5789C208.991 31.9905 208.488 32.4021 208.077 32.9051C206.339 35.1918 204.83 37.8443 204.006 40.634C203.869 41.0913 203.732 41.5944 203.778 42.0974C203.778 42.1432 203.823 42.2346 203.823 42.3261ZM212.376 35.146C210.958 36.9754 209.586 38.8047 207.802 40.2681C207.482 40.5883 206.979 40.8627 206.613 40.5883C206.339 40.3139 206.385 39.8565 206.522 39.4907C207.071 37.6156 208.077 35.9235 209.357 34.4143C209.86 33.8655 210.409 33.3625 211.095 33.1338C211.644 32.9509 212.467 32.9966 212.879 33.4539C212.924 33.5454 212.97 33.6369 212.97 33.7283C213.153 34.1857 212.696 34.7345 212.376 35.146Z" fill="white"/>
<path d="M226.782 28.8349C226.691 28.8349 226.6 28.8349 226.554 28.8349C225.914 29.0178 225.548 29.7038 225.273 30.3441C223.764 33.9113 222.484 37.6614 221.66 41.4572C221.569 41.8688 221.477 42.3261 221.615 42.7377C221.752 43.1493 222.118 43.5152 222.529 43.6524C224.084 44.1097 224.13 42.3718 224.359 41.4114C224.542 40.634 224.724 39.8565 224.907 39.0791C225.273 37.5242 225.731 35.9692 226.279 34.4601C226.828 32.9966 227.468 31.5332 227.56 29.9782C227.56 29.6124 227.56 29.155 227.24 28.9264C227.103 28.8349 226.965 28.7892 226.782 28.8349ZM231.996 20.9231C229.435 22.3408 228.475 22.661 225.868 24.0787C225.548 24.2616 225.228 24.4446 225.09 24.7647C224.862 25.222 225.09 25.7708 225.502 26.0452C225.914 26.3196 226.462 26.3653 226.92 26.2739C227.286 26.2281 227.651 26.0909 227.972 25.9537C228.658 25.6336 231.539 23.0726 233.231 21.7006C233.414 21.5177 233.597 21.3805 233.642 21.1061C233.825 20.1914 232.316 20.7859 231.996 20.9231Z" fill="white"/>
<path d="M232.924 45.9847C233.106 45.939 233.289 45.8018 233.427 45.6646C234.25 44.9786 234.25 43.7896 234.478 42.7834C234.753 41.6401 234.982 40.4511 235.256 39.3077C235.713 37.1126 236.262 34.8259 236.765 32.6765C238.183 26.7769 239.601 20.7859 241.613 15.0693C241.933 14.1547 242.71 12.5083 242.344 11.5479C242.07 10.7704 240.927 10.6332 240.332 11.1363C239.966 11.5022 239.829 12.0052 239.692 12.4625C237.497 20.8317 236.171 25.7251 233.93 34.1399C233.244 36.7924 232.512 39.4907 231.963 42.1889C231.78 42.9206 231.369 45.9847 232.832 45.9847C232.878 45.9847 232.878 45.9847 232.924 45.9847Z" fill="white"/>
<defs>
<linearGradient id="paint0_linear" x1="33.035" y1="22.3132" x2="33.035" y2="41.7178" gradientUnits="userSpaceOnUse">
<stop stop-color="#5BDAD5"/>
<stop offset="1" stop-color="#0947A0" stop-opacity="0.597"/>
</linearGradient>
</defs>
</svg>
