<svg width="294" height="110" viewBox="0 0 294 110" fill="none" xmlns="http://www.w3.org/2000/svg">
<path d="M135.544 53.8561C135.917 53.9093 136.103 54.1489 136.103 54.5748C135.996 57.3966 135.917 59.1002 135.863 59.6859C135.863 60.165 135.797 60.4445 135.664 60.5244C135.531 60.6043 135.224 60.6176 134.745 60.5643C134.373 60.5111 134.16 60.4845 134.106 60.4845C133.893 60.4845 133.787 60.5643 133.787 60.724C133.734 61.2032 133.707 61.5759 133.707 61.8421C133.973 63.812 133.947 66.1279 133.627 68.7899C133.414 70.8663 132.589 72.6764 131.152 74.2204C129.554 75.9241 128.09 77.0954 126.759 77.7343C126.28 77.9472 125.721 78.1336 125.082 78.2933C123.804 78.666 122.527 78.453 121.249 77.6544C120.929 77.4947 120.557 77.2285 120.131 76.8558C116.723 73.6614 114.434 69.9346 113.263 65.6754C112.305 62.3212 111.612 59.5528 111.187 57.3699C110.814 55.3468 110.628 53.4834 110.628 51.7797C110.574 46.8816 111.719 42.1166 114.061 37.4847C114.594 36.4732 115.18 35.435 115.818 34.3702C116.351 33.5716 116.883 32.9327 117.416 32.4535C120.184 30.0045 123.086 28.5404 126.12 28.0612C127.611 27.795 129.102 27.795 130.593 28.0612C131.657 28.2209 132.256 28.4073 132.389 28.6202C132.523 28.8332 132.429 29.4455 132.11 30.457L130.832 34.2903C130.672 34.663 130.433 34.8227 130.113 34.7695C130.007 34.7695 129.9 34.7562 129.794 34.7296L129.475 34.6497C129.368 34.6231 129.288 34.6098 129.235 34.6098C127.797 34.45 126.333 34.7429 124.843 35.4882C124.736 35.5415 124.23 35.8343 123.325 36.3667C122.42 36.8991 121.675 37.6444 121.089 38.6028C118.321 43.2879 117.096 48.1593 117.416 53.2172C117.522 54.4417 117.708 55.613 117.975 56.731C118.454 58.9139 119.013 61.1766 119.652 63.5192C119.811 64.1048 120.157 65.0897 120.69 66.474C121.329 68.1244 122.42 69.6418 123.964 71.026L124.443 71.1857C125.082 70.8663 125.774 70.2274 126.52 69.2691C126.679 69.0561 126.786 68.7633 126.839 68.3906C127.052 67.592 127.159 66.1812 127.159 64.158C127.159 62.9868 127.025 61.9486 126.759 61.0435C126.333 60.9902 126.094 60.9636 126.041 60.9636C125.881 60.9636 125.628 60.9769 125.282 61.0036C124.936 61.0302 124.683 61.0435 124.523 61.0435C123.938 61.0967 123.565 60.8305 123.405 60.2449C123.086 59.2866 122.819 57.503 122.607 54.8943C122.607 54.7878 122.686 54.6813 122.846 54.5748C122.953 54.4683 123.086 54.4151 123.245 54.4151C127.025 53.9892 129.288 53.7496 130.034 53.6964C131.098 53.5899 132.349 53.5366 133.787 53.5366C134 53.5366 134.586 53.6431 135.544 53.8561ZM164.217 54.1755V57.7692C164.27 60.2715 164.057 62.9867 163.578 65.915C163.206 68.1511 162.327 70.3605 160.943 72.5434C160.091 73.8211 158.973 74.7794 157.589 75.4183C155.406 76.3767 153.436 76.8026 151.679 76.6961H150.321C148.192 76.7493 146.089 75.8975 144.012 74.1406C143.001 73.2355 142.149 72.1973 141.457 71.026C139.966 68.4705 139.114 65.915 138.901 63.3594C138.901 62.9868 138.848 62.4011 138.742 61.6025C138.635 60.8039 138.582 60.2183 138.582 59.8456C138.263 56.2785 138.289 52.6049 138.662 48.8249C138.822 46.9082 139.434 44.6722 140.499 42.1166C141.191 40.5726 142.282 39.3748 143.773 38.5229C145.743 37.4049 147.766 36.6595 149.842 36.2868C150.694 36.1271 151.519 36.1537 152.318 36.3667C152.584 36.4732 152.957 36.593 153.436 36.7261C153.915 36.8592 154.261 36.9789 154.474 37.0854C157.243 37.9373 159.372 39.7208 160.863 42.4361C161.928 44.3527 162.78 46.4291 163.419 48.6652C163.951 50.4753 164.217 52.3121 164.217 54.1755ZM145.21 50.6617C145.21 50.8214 145.157 51.966 145.051 54.0956V56.731C145.317 59.7125 145.53 61.9752 145.69 63.5192C145.903 64.9034 146.488 66.3409 147.446 67.8316C147.926 68.5237 148.458 69.0561 149.044 69.4288C149.416 69.6418 149.683 69.7749 149.842 69.8281C151.759 70.1476 153.303 70.0145 154.474 69.4288C154.953 69.1626 155.273 68.8698 155.432 68.5504C156.231 67.2193 156.71 66.1279 156.87 65.2761C157.243 62.6141 157.429 60.9636 157.429 60.3247C157.482 58.3549 157.535 56.7044 157.589 55.3734C157.695 52.4452 156.817 49.2242 154.953 45.7103C154.368 44.5923 153.542 43.8735 152.478 43.5541C150.88 43.0217 149.496 43.0749 148.325 43.7138C148.218 43.7671 148.072 43.8336 147.886 43.9135C147.699 43.9933 147.58 44.0599 147.526 44.1131C147.047 44.3793 146.701 44.752 146.488 45.2312C145.69 47.4673 145.264 49.2774 145.21 50.6617ZM186.422 55.2936V59.3664C186.475 60.591 186.209 61.8953 185.623 63.2796C185.037 64.7171 184.026 65.8085 182.588 66.5538C181.364 67.1927 180.006 67.592 178.515 67.7517L176.04 67.9115C175.561 67.9647 175.241 68.0579 175.082 68.191C174.922 68.3241 174.842 68.6302 174.842 69.1094V74.3003C174.842 74.673 174.789 74.9658 174.682 75.1787C174.682 75.232 174.549 75.3917 174.283 75.6579H174.043C171.86 75.5514 170.13 75.4716 168.852 75.4183C168.48 75.4183 168.293 75.2054 168.293 74.7794C168.24 73.4484 168.214 72.6498 168.214 72.3836C168.32 70.7332 168.187 68.5504 167.814 65.8351C167.335 62.3212 167.095 58.8074 167.095 55.2936C167.095 55.1338 167.016 53.4834 166.856 50.3422C166.643 45.87 166.536 42.4893 166.536 40.2C166.536 38.4963 166.883 36.8192 167.575 35.1688C168.746 32.4003 170.822 30.9096 173.804 30.6966C175.827 30.5369 177.69 30.9894 179.394 32.0542C180.618 32.8528 181.497 33.7845 182.029 34.8493C182.615 36.0206 183.041 36.9789 183.307 37.7243C184.265 40.6525 184.958 42.9418 185.383 44.5923C186.076 47.3608 186.395 50.0228 186.342 52.5783V55.2936H186.422ZM179.713 59.3664V58.7275C179.66 54.4683 179.634 52.2855 179.634 52.179C179.634 50.4221 179.421 48.6385 178.995 46.8284C178.675 45.6571 178.01 43.3678 176.998 39.9604C176.838 39.428 176.572 38.869 176.2 38.2833C175.88 37.7509 175.374 37.4847 174.682 37.4847C174.256 37.4315 173.963 37.5912 173.804 37.9639C173.484 38.6028 173.325 39.3215 173.325 40.1201V45.0714C173.431 48.0529 173.484 49.6501 173.484 49.8631C173.644 51.62 173.777 54.3086 173.884 57.9289C173.884 58.4081 173.937 59.3132 174.043 60.6442C174.043 60.8039 174.123 60.9503 174.283 61.0834C174.443 61.2165 174.629 61.2831 174.842 61.2831C176.705 61.1233 177.903 61.0169 178.436 60.9636C179.234 60.8039 179.66 60.2715 179.713 59.3664ZM205.991 36.2868C206.044 36.2868 206.417 36.3667 207.109 36.5264C207.428 37.325 207.588 37.7509 207.588 37.8042C208.759 41.6375 209.451 44.0066 209.664 44.9117C209.877 45.7103 210.144 47.201 210.463 49.3839C210.782 51.5135 211.155 53.4834 211.581 55.2936C212.113 57.6894 212.619 60.5643 213.098 63.9185C213.791 68.3374 214.216 71.026 214.376 71.9843C214.483 72.8362 214.456 73.5017 214.296 73.9808C214.137 74.5132 213.844 74.8327 213.418 74.9392C211.075 75.5248 209.398 75.9507 208.387 76.2169C208.014 76.3234 207.774 76.1903 207.668 75.8176L207.348 74.5399C206.869 71.5584 206.257 68.3906 205.512 65.0365C205.458 64.6106 205.379 64.2379 205.272 63.9185C205.112 63.3861 204.713 63.1465 204.074 63.1997H203.835C200.64 63.6789 198.644 63.9717 197.845 64.0782C197.419 64.1314 197.18 64.371 197.126 64.7969C196.328 68.6835 195.875 70.9728 195.769 71.6649C195.715 71.9311 195.662 72.3171 195.609 72.8229C195.556 73.3287 195.489 73.7945 195.409 74.2204C195.329 74.6463 195.236 75.0456 195.13 75.4183L195.05 75.8176C194.837 76.0306 194.651 76.1637 194.491 76.2169C194.012 76.2702 193.306 76.3367 192.375 76.4166C191.443 76.4964 190.871 76.563 190.658 76.6162C189.753 76.6695 189.207 76.6029 189.021 76.4166C188.834 76.2302 188.741 75.6313 188.741 74.6197C188.794 72.6498 189.167 69.9879 189.859 66.6337C190.658 62.4277 191.35 58.8074 191.935 55.7727C192.148 54.5482 192.281 53.3503 192.335 52.179C192.388 50.4221 192.601 48.6385 192.974 46.8284C192.974 46.7219 193.266 45.4175 193.852 42.9152C193.852 42.7555 193.919 42.3828 194.052 41.7972C194.185 41.2115 194.278 40.7856 194.331 40.5194C194.544 39.5078 194.704 38.9222 194.81 38.7625C194.864 38.4963 194.943 38.2168 195.05 37.924C195.156 37.6311 195.21 37.4315 195.21 37.325C195.21 37.2185 195.276 37.0987 195.409 36.9656L195.649 36.7261C195.676 36.6994 195.822 36.6595 196.088 36.6063C196.354 36.553 196.567 36.5397 196.727 36.5663C196.887 36.593 197.206 36.6063 197.685 36.6063C198.111 36.6063 199.07 36.553 200.56 36.4465C202.796 36.2336 204.607 36.1803 205.991 36.2868ZM204.154 55.9324C204.154 55.8792 204.181 55.5598 204.234 54.9741C204.127 53.6431 204.074 52.9244 204.074 52.8179C203.648 49.7832 203.355 47.7068 203.196 46.5888C203.142 46.0031 202.956 45.1247 202.637 43.9534C202.583 43.634 202.37 43.4476 201.998 43.3944C201.572 43.3411 201.199 43.3411 200.88 43.3944C200.72 43.3944 200.56 43.5275 200.401 43.7937C200.294 43.9002 200.241 44.1131 200.241 44.4326C199.921 47.2011 199.762 48.8249 199.762 49.304C199.655 50.6883 199.389 52.7114 198.963 55.3734C198.91 55.4799 198.857 55.8526 198.803 56.4915C198.803 56.5447 198.857 56.6246 198.963 56.731C199.07 56.8375 199.149 56.8908 199.203 56.8908C199.735 56.944 200.055 56.944 200.161 56.8908C200.693 56.8375 201.865 56.6512 203.675 56.3317C203.781 56.3317 203.861 56.3051 203.914 56.2519C204.074 56.0922 204.154 55.9857 204.154 55.9324ZM236.501 52.4984C236.501 52.5517 236.288 52.951 235.862 53.6964L236.581 54.6547C237.805 56.1454 238.524 57.9289 238.737 60.0053C238.79 60.8039 238.843 62.3212 238.897 64.5573C238.897 65.3559 238.71 66.2344 238.338 67.1927C237.592 69.0029 236.714 70.6533 235.702 72.1441C234.691 73.5816 233.44 74.46 231.949 74.7794L230.431 75.0989C226.705 75.4716 222.658 75.6313 218.293 75.578C218.186 75.578 218.026 75.5514 217.814 75.4982C217.494 75.4449 217.281 75.2586 217.175 74.9392C216.802 73.7146 216.642 72.6765 216.695 71.8246C216.695 71.3987 216.709 70.7332 216.735 69.8281C216.762 68.923 216.802 68.2575 216.855 67.8316C216.855 67.5122 216.935 65.9416 217.095 63.1199C217.201 62.1083 217.255 61.5759 217.255 61.5227C217.467 60.0319 217.627 57.2635 217.734 53.2172C217.787 50.6616 217.814 48.186 217.814 45.7902C217.814 45.2578 217.76 43.8203 217.654 41.4777C217.601 40.2 217.654 39.3215 217.814 38.8424C217.973 38.2567 218.319 37.9373 218.852 37.884C219.384 37.8308 219.837 37.7775 220.209 37.7243C221.381 37.7243 222.818 37.6444 224.522 37.4847C226.758 37.2185 229.074 37.325 231.47 37.8042C231.896 37.9106 232.295 38.097 232.668 38.3632C236.607 41.4511 238.178 45.4175 237.379 50.2624C237.273 50.9545 236.98 51.6998 236.501 52.4984ZM224.362 58.7275V63.9185H224.282V68.3906C224.282 68.6036 224.309 68.9763 224.362 69.5087C224.362 69.8814 224.548 70.0943 224.921 70.1476C227.796 70.3605 229.926 69.4022 231.31 67.2726C231.736 66.6869 232.002 66.0747 232.109 65.4358C232.375 64.0516 232.295 62.268 231.869 60.0852C231.603 58.5944 230.644 57.7958 228.994 57.6894C228.675 57.6361 228.382 57.6361 228.116 57.6894C227.477 57.7426 226.438 57.8491 225.001 58.0088C224.575 58.062 224.362 58.3016 224.362 58.7275ZM224.602 43.9534C224.548 44.2196 224.495 45.2578 224.442 47.068H224.522V50.4221C224.575 50.5818 224.655 50.7149 224.761 50.8214C224.868 50.9279 225.001 50.9811 225.161 50.9811C226.545 50.9279 227.37 50.8746 227.636 50.8214C228.595 50.7149 229.393 50.3688 230.032 49.7832C230.724 49.1976 231.017 48.4522 230.911 47.5471C230.698 46.1629 230.059 45.0182 228.994 44.1131C228.728 43.8469 228.488 43.6872 228.275 43.634C227.157 43.2613 226.119 43.1548 225.161 43.3145C224.788 43.3678 224.602 43.5807 224.602 43.9534ZM241.216 42.1965C241.216 40.3863 241.243 39.4014 241.296 39.2416C241.296 38.6028 241.589 38.2567 242.174 38.2035C243.452 38.1502 245.102 38.0704 247.126 37.9639C247.339 37.9639 247.512 38.0304 247.645 38.1635C247.778 38.2966 247.858 38.4564 247.884 38.6427C247.911 38.829 247.924 39.042 247.924 39.2816V40.6791C247.977 41.1583 248.031 41.9835 248.084 43.1548C248.137 44.3261 248.164 45.2312 248.164 45.87C248.27 47.8932 248.324 49.2375 248.324 49.903C248.324 50.5685 248.35 52.1923 248.403 54.7745C248.457 57.3566 248.483 59.3398 248.483 60.724C248.536 61.2565 248.67 63.4127 248.883 67.1927C248.883 67.5654 249.069 67.7784 249.442 67.8316H249.521C249.575 67.8848 249.628 67.9115 249.681 67.9115C253.035 68.0712 254.979 68.1777 255.511 68.2309C256.203 68.2841 257.175 68.3241 258.426 68.3507C259.677 68.3773 260.489 68.3906 260.862 68.3906C261.554 68.4439 261.9 68.7367 261.9 69.2691V73.5815C261.9 74.1672 261.58 74.5132 260.941 74.6197C259.77 74.8327 258.945 74.9392 258.466 74.9392C257.082 74.9924 255.591 74.9924 253.994 74.9392C252.663 74.8859 251.172 74.7794 249.521 74.6197C248.244 74.5132 247.046 74.3801 245.928 74.2204C244.703 74.0607 243.772 73.3686 243.133 72.1441C242.6 71.0793 242.281 69.7749 242.174 68.2309C242.068 66.8999 241.988 65.4891 241.935 63.9983C241.881 62.6141 241.815 60.1917 241.735 56.731C241.655 53.2704 241.589 50.5818 241.535 48.6652C241.535 48.5587 241.456 46.7751 241.296 43.3145C241.296 43.208 241.269 42.8354 241.216 42.1965ZM290.094 54.1755V57.7692C290.147 60.2715 289.934 62.9867 289.455 65.915C289.082 68.1511 288.204 70.3605 286.82 72.5434C285.968 73.8211 284.85 74.7794 283.465 75.4183C281.283 76.3767 279.313 76.8026 277.556 76.6961H276.198C274.069 76.7493 271.966 75.8975 269.889 74.1406C268.878 73.2355 268.026 72.1973 267.334 71.026C265.843 68.4705 264.991 65.915 264.778 63.3594C264.778 62.9868 264.725 62.4011 264.618 61.6025C264.512 60.8039 264.459 60.2183 264.459 59.8456C264.139 56.2785 264.166 52.6049 264.539 48.8249C264.698 46.9082 265.311 44.6722 266.375 42.1166C267.067 40.5726 268.159 39.3748 269.65 38.5229C271.62 37.4049 273.643 36.6595 275.719 36.2868C276.571 36.1271 277.396 36.1537 278.195 36.3667C278.461 36.4732 278.834 36.593 279.313 36.7261C279.792 36.8592 280.138 36.9789 280.351 37.0854C283.119 37.9373 285.249 39.7208 286.74 42.4361C287.805 44.3527 288.656 46.4291 289.295 48.6652C289.828 50.4753 290.094 52.3121 290.094 54.1755ZM271.087 50.6617C271.087 50.8214 271.034 51.966 270.927 54.0956C270.927 55.7993 270.927 56.6778 270.927 56.731C271.194 59.7125 271.407 61.9752 271.566 63.5192C271.779 64.9034 272.365 66.3409 273.323 67.8316C273.802 68.5237 274.335 69.0561 274.92 69.4288C275.293 69.6418 275.559 69.7749 275.719 69.8281C277.636 70.1476 279.18 70.0145 280.351 69.4288C280.83 69.1626 281.149 68.8698 281.309 68.5504C282.108 67.2193 282.587 66.1279 282.747 65.2761C283.119 62.6141 283.306 60.9636 283.306 60.3247C283.359 58.3549 283.412 56.7044 283.465 55.3734C283.572 52.4452 282.693 49.2242 280.83 45.7103C280.244 44.5923 279.419 43.8735 278.354 43.5541C276.757 43.0217 275.373 43.0749 274.202 43.7138C274.095 43.7671 273.949 43.8336 273.762 43.9135C273.576 43.9933 273.456 44.0599 273.403 44.1131C272.924 44.3793 272.578 44.752 272.365 45.2312C271.566 47.4673 271.14 49.2774 271.087 50.6617Z" fill="#303030"/>
<path fill-rule="evenodd" clip-rule="evenodd" d="M134.745 60.5644C134.373 60.5112 134.16 60.4845 134.106 60.4845C133.893 60.4845 133.787 60.5644 133.787 60.7241C133.734 61.2033 133.707 61.576 133.707 61.8422C133.81 62.6012 133.869 63.4115 133.884 64.2733C133.884 64.2746 133.884 64.2759 133.884 64.2772C133.909 65.651 133.823 67.1552 133.627 68.79C133.414 70.8664 132.589 72.6765 131.152 74.2205C129.554 75.9242 128.09 77.0955 126.759 77.7343C126.28 77.9473 125.721 78.1337 125.082 78.2934C123.804 78.6661 122.527 78.4531 121.249 77.6545C120.929 77.4948 120.557 77.2286 120.131 76.8559C116.723 73.6615 114.434 69.9347 113.263 65.6755C112.305 62.3213 111.612 59.5528 111.186 57.37C110.814 55.3469 110.627 53.4835 110.627 51.7798C110.574 46.8817 111.719 42.1167 114.061 37.4848C114.594 36.4732 115.179 35.4351 115.818 34.3702C116.351 33.5716 116.883 32.9328 117.416 32.4536C120.184 30.0045 123.086 28.5405 126.12 28.0613C127.611 27.7951 129.102 27.7951 130.592 28.0613C131.657 28.221 132.256 28.4073 132.389 28.6203C132.522 28.8333 132.429 29.4455 132.11 30.4571L130.832 34.2904C130.672 34.6631 130.433 34.8228 130.113 34.7695C130.007 34.7695 129.9 34.7562 129.794 34.7296L129.474 34.6498C129.368 34.6231 129.288 34.6098 129.235 34.6098C127.797 34.4501 126.333 34.7429 124.843 35.4883C124.736 35.5415 124.23 35.8343 123.325 36.3668C122.42 36.8992 121.675 37.6445 121.089 38.6028C118.321 43.288 117.096 48.1594 117.416 53.2173C117.522 54.4418 117.708 55.6131 117.975 56.7311C118.454 58.914 119.013 61.1767 119.652 63.5192C119.811 64.1049 120.157 65.0898 120.69 66.4741C121.329 68.1245 122.42 69.6418 123.964 71.0261L124.443 71.1858C125.082 70.8664 125.774 70.2275 126.52 69.2692C126.679 69.0562 126.786 68.7634 126.839 68.3907C127.052 67.5921 127.159 66.1813 127.159 64.1581C127.159 62.9868 127.025 61.9487 126.759 61.0436C126.333 60.9903 126.094 60.9637 126.04 60.9637C125.881 60.9637 125.628 60.977 125.282 61.0036C124.936 61.0303 124.683 61.0436 124.523 61.0436C123.937 61.0968 123.565 60.8306 123.405 60.245C123.086 59.2866 122.819 57.5031 122.606 54.8943C122.606 54.7878 122.686 54.6814 122.846 54.5749C122.953 54.4684 123.086 54.4152 123.245 54.4152C127.025 53.9892 129.288 53.7497 130.033 53.6964C131.098 53.5899 132.349 53.5367 133.787 53.5367C133.915 53.5367 134.178 53.5753 134.576 53.6524C134.84 53.7034 135.162 53.7713 135.544 53.8561C135.917 53.9094 136.103 54.149 136.103 54.5749C135.996 57.3966 135.917 59.1003 135.863 59.6859C135.863 59.7419 135.862 59.7951 135.861 59.8457C135.857 59.9362 135.851 60.018 135.842 60.091C135.813 60.3262 135.753 60.4707 135.664 60.5245C135.537 60.6004 135.254 60.6162 134.815 60.5718C134.792 60.5695 134.769 60.567 134.745 60.5644ZM137.111 70.9132C136.59 73.1185 135.517 75.1016 133.93 76.807L133.925 76.8118L133.921 76.8166C132.167 78.6867 130.33 80.2308 128.402 81.1563L128.352 81.1803L128.301 81.2029C127.598 81.5154 126.845 81.7619 126.068 81.9593C123.69 82.6289 121.382 82.1694 119.375 80.9578C118.72 80.6053 118.132 80.1505 117.631 79.7125L117.582 79.6696L117.535 79.625C113.653 75.9855 110.977 71.6656 109.608 66.7006C108.637 63.3013 107.915 60.424 107.461 58.0969L107.457 58.0773L107.454 58.0576C107.049 55.8603 106.833 53.7704 106.832 51.8006C106.775 46.2643 108.077 40.9075 110.674 35.7717L110.688 35.7442L110.703 35.717C111.271 34.6377 111.891 33.5377 112.564 32.4174L112.61 32.3399L112.66 32.2648C113.313 31.2857 114.044 30.381 114.876 29.6323L114.888 29.6214L114.901 29.6106C118.089 26.7898 121.623 24.937 125.491 24.318C127.393 23.9828 129.305 23.9819 131.207 24.3153C131.8 24.4057 132.415 24.5244 132.968 24.6965C133.25 24.7842 133.628 24.9198 134.02 25.1333C134.349 25.3128 135.071 25.7497 135.608 26.6086C136.14 27.4595 136.22 28.2919 136.238 28.6715C136.26 29.1181 136.216 29.5181 136.172 29.8103C136.082 30.3991 135.913 31.019 135.729 31.6001L135.72 31.6288L134.383 35.6405L134.321 35.7856C134.065 36.3838 133.573 37.2247 132.638 37.8479C131.733 38.4514 130.736 38.6361 129.838 38.5578C129.508 38.5399 129.185 38.49 128.873 38.412L128.717 38.373C128.142 38.3276 127.452 38.4356 126.584 38.8613C126.577 38.8656 126.567 38.871 126.556 38.8776C126.495 38.9116 126.407 38.9624 126.285 39.0328C126.044 39.1726 125.7 39.3738 125.25 39.6384C124.924 39.8298 124.621 40.1094 124.341 40.5614C122.29 44.0417 121.258 47.5514 121.168 51.1403C121.726 50.8393 122.331 50.6721 122.938 50.6301C126.53 50.2256 128.828 49.9806 129.707 49.9145C130.919 49.7955 132.284 49.741 133.787 49.741C134.133 49.741 134.491 49.7865 134.763 49.8299C134.798 49.3809 134.837 48.9309 134.882 48.4796C135.089 46.0463 135.844 43.4198 136.995 40.6568L137.014 40.6101L137.035 40.564C138.061 38.2748 139.712 36.4718 141.89 35.2274L141.894 35.2246L141.899 35.2219C144.211 33.9099 146.634 33.0081 149.158 32.5534C150.534 32.2975 151.928 32.3345 153.296 32.6992L153.516 32.7579L153.728 32.8425C153.805 32.8735 154.025 32.9502 154.452 33.0689C154.868 33.1844 155.364 33.3349 155.832 33.5342C158.698 34.4681 161.041 36.1671 162.828 38.5096C163 36.8673 163.42 35.2609 164.074 33.7009L164.076 33.6954L164.079 33.6899C164.888 31.7777 166.099 30.1101 167.797 28.8911C169.492 27.674 171.454 27.0613 173.519 26.9116C176.339 26.6918 179.009 27.3375 181.406 28.8355L181.437 28.855L181.467 28.875C183.128 29.9581 184.529 31.3613 185.424 33.1519C186.04 34.3839 186.542 35.4963 186.882 36.4477L186.899 36.4955L186.914 36.5438C187.881 39.4982 188.603 41.8769 189.059 43.6439L189.062 43.6578L189.066 43.6718C189.197 44.1951 189.316 44.7167 189.423 45.2365C189.444 45.1433 189.466 45.044 189.49 44.9389C189.629 44.3172 189.831 43.4403 190.095 42.3136C190.118 42.1139 190.147 41.9485 190.165 41.8487C190.213 41.5807 190.277 41.2774 190.35 40.956C190.483 40.3737 190.566 39.9891 190.609 39.7751L190.613 39.7563L190.617 39.7375C190.73 39.2018 190.84 38.7199 190.949 38.3229C191.002 38.1264 191.068 37.9048 191.146 37.6856C191.157 37.6541 191.173 37.609 191.195 37.5531C191.271 37.254 191.363 36.9612 191.465 36.6755C191.67 35.3966 192.431 34.5762 192.725 34.2817L192.965 34.0421C193.358 33.6486 193.746 33.4363 193.888 33.3609C194.074 33.2626 194.233 33.1977 194.329 33.161C194.52 33.0873 194.687 33.0396 194.78 33.0142C194.978 32.9602 195.18 32.917 195.344 32.8843C195.774 32.7982 196.457 32.697 197.224 32.803C197.23 32.8033 197.237 32.8036 197.244 32.8039C197.332 32.8076 197.475 32.8106 197.685 32.8106C197.946 32.8106 198.745 32.7705 200.246 32.6637C202.565 32.4444 204.601 32.3731 206.282 32.5024C206.461 32.5157 206.585 32.5363 206.589 32.5369C206.67 32.5491 206.742 32.5621 206.79 32.5712C206.89 32.59 207 32.6128 207.105 32.6353C207.321 32.6815 207.61 32.7467 207.962 32.828L209.896 33.2742L210.633 35.1168C210.796 35.5234 210.928 35.8599 211.022 36.1121C211.068 36.2337 211.117 36.368 211.159 36.4941C211.179 36.5533 211.211 36.6524 211.242 36.768C211.247 36.7832 211.251 36.8014 211.257 36.8222C212.371 40.4717 213.089 42.9159 213.346 43.9885C213.558 44.7986 213.779 45.9896 214.013 47.4781C214.016 46.9109 214.018 46.3483 214.018 45.7903C214.018 45.3649 213.97 44.0305 213.862 41.6502L213.862 41.643L213.861 41.6358C213.811 40.4305 213.806 38.9517 214.178 37.7498C214.4 36.9867 214.823 36.1081 215.618 35.3745C216.478 34.581 217.504 34.2042 218.474 34.1072C218.973 34.0573 219.369 34.0101 219.672 33.9668L219.939 33.9287H220.209C221.213 33.9287 222.509 33.8601 224.123 33.7098C226.773 33.4 229.476 33.5346 232.214 34.0822L232.302 34.0999L232.39 34.1218C233.298 34.3488 234.13 34.7437 234.874 35.2746L234.942 35.3237L235.009 35.3758C235.995 36.1486 236.886 36.9881 237.668 37.8962C237.824 37.2951 238.111 36.6503 238.618 36.0512C239.583 34.9104 240.852 34.5124 241.831 34.4234L241.923 34.415L242.016 34.4111C243.275 34.3587 244.91 34.2796 246.926 34.1735L247.026 34.1682H247.126C248.201 34.1682 249.388 34.5389 250.329 35.4796C251.042 36.1935 251.499 37.1067 251.642 38.106C251.699 38.5103 251.72 38.9082 251.72 39.2817V40.4855C251.778 41.0944 251.829 41.9469 251.876 42.9825C251.927 44.1168 251.957 45.0536 251.959 45.7669C252.062 47.7222 252.119 49.1333 252.119 49.9031C252.119 50.5208 252.145 52.1003 252.198 54.6963C252.25 57.1851 252.277 59.1419 252.279 60.5543C252.328 61.1448 252.407 62.3929 252.516 64.2502C254.218 64.3369 255.345 64.4033 255.836 64.449C256.424 64.4931 257.303 64.5303 258.506 64.5559C259.768 64.5828 260.537 64.595 260.861 64.595H261.007L261.095 64.6017C261.055 64.2937 261.021 63.9847 260.995 63.6747L260.982 63.5174V63.3595C260.982 63.2555 260.96 62.8816 260.856 62.1042C260.757 61.3654 260.68 60.6447 260.665 60.0399C260.338 56.2768 260.371 52.422 260.758 48.4795C260.966 46.0462 261.72 43.4198 262.871 40.6568L262.891 40.6101L262.912 40.564C263.938 38.2748 265.588 36.4718 267.766 35.2274L267.771 35.2246L267.776 35.2219C270.087 33.9099 272.51 33.0081 275.034 32.5534C276.411 32.2975 277.805 32.3345 279.173 32.6992L279.393 32.7579L279.604 32.8425C279.682 32.8735 279.901 32.9502 280.328 33.0689C280.744 33.1844 281.24 33.3349 281.709 33.5342C285.368 34.7266 288.174 37.1662 290.062 40.6C291.272 42.7802 292.23 45.1217 292.942 47.6136C293.572 49.761 293.889 51.9518 293.889 54.1756V57.7299C293.945 60.4904 293.708 63.4268 293.201 66.528L293.2 66.5335L293.199 66.5391C292.732 69.3414 291.643 72.0243 290.025 74.5762L290.002 74.6128L289.978 74.6489C288.74 76.5053 287.081 77.93 285.056 78.8648L285.024 78.8797L284.991 78.8939C282.485 79.9944 279.944 80.6177 277.451 80.4919H276.241C272.967 80.5588 270.008 79.2131 267.437 77.0382L267.397 77.0043L267.358 76.9694C266.681 76.3637 266.059 75.7105 265.492 75.0114C265.308 75.6384 264.982 76.2779 264.449 76.855C263.549 77.8298 262.439 78.2129 261.6 78.358C260.483 78.5607 259.396 78.7237 258.552 78.7344C257.082 78.7893 255.519 78.7879 253.867 78.7329L253.854 78.7324L253.842 78.7319C252.431 78.6755 250.876 78.564 249.18 78.4003C247.855 78.2894 246.598 78.15 245.41 77.9809C242.811 77.633 240.896 76.0641 239.767 73.8999L239.752 73.8709L239.738 73.8416C239.647 73.6608 239.562 73.4775 239.481 73.2919C239.274 73.6253 239.062 73.9532 238.843 74.2754L238.825 74.3022L238.806 74.3285C237.335 76.4195 235.312 77.9408 232.744 78.491L232.737 78.4924L231.013 78.8555L230.809 78.8759C226.924 79.2644 222.738 79.428 218.258 79.3737C217.745 79.3696 217.281 79.2739 216.998 79.2065C216.377 79.0768 215.726 78.8116 215.131 78.353C214.884 78.4605 214.621 78.5511 214.338 78.6216C212.014 79.2026 210.365 79.6216 209.375 79.8818C208.619 80.0879 207.363 80.2257 206.084 79.5151C204.774 78.7872 204.232 77.6094 204.018 76.8605L204.001 76.7997L203.627 75.3028L203.601 75.1422C203.203 72.6688 202.71 70.0531 202.119 67.2939C201.489 67.3875 200.929 67.4703 200.439 67.5421C199.89 70.2402 199.592 71.774 199.52 72.2421L199.507 72.3261L199.491 72.4094C199.472 72.5015 199.433 72.7493 199.384 73.2203C199.322 73.8105 199.241 74.3787 199.14 74.92C199.051 75.3924 198.947 75.8541 198.824 76.3026L198.547 77.689L197.734 78.5017C197.384 78.8518 196.692 79.4843 195.691 79.8179L195.31 79.9451L194.91 79.9895C194.382 80.0482 193.639 80.118 192.699 80.1985C192.251 80.2369 191.917 80.2698 191.685 80.2968C191.592 80.3076 191.526 80.3162 191.484 80.3222L191.234 80.3847L190.88 80.4055C190.326 80.4381 189.707 80.447 189.11 80.3741L189.106 80.3737C188.739 80.3289 187.402 80.1659 186.336 79.1006C185.726 78.4906 185.448 77.8255 185.322 77.4724C185.181 77.0747 185.105 76.7 185.06 76.4111C184.97 75.8336 184.945 75.2103 184.945 74.6198V74.5685L184.947 74.5173C184.987 73.0077 185.184 71.2322 185.515 69.2169C185.143 69.4729 184.751 69.7078 184.34 69.9211C182.661 70.7965 180.841 71.3201 178.92 71.5259L178.84 71.5345L178.638 71.5476V74.3004C178.638 74.8905 178.572 75.7166 178.219 76.5655C178.205 76.6032 178.191 76.636 178.18 76.6636C178.069 76.9294 177.95 77.1323 177.876 77.2504C177.728 77.4866 177.58 77.6699 177.498 77.7685C177.322 77.9801 177.127 78.1814 176.967 78.342L175.855 79.4537H173.951L173.858 79.4492C171.704 79.3441 169.998 79.2653 168.738 79.2126C167.83 79.1892 166.559 78.8816 165.576 77.7582C164.681 76.7345 164.513 75.5782 164.499 74.8806C164.487 74.5857 164.476 74.312 164.467 74.061C164.363 74.2333 164.257 74.4051 164.148 74.5762L164.125 74.6128L164.101 74.6489C162.863 76.5053 161.205 77.9299 159.179 78.8648L159.147 78.8797L159.114 78.8939C156.608 79.9944 154.068 80.6177 151.575 80.4919H150.364C147.09 80.5588 144.131 79.2131 141.561 77.0382L141.521 77.0043L141.481 76.9694C140.179 75.804 139.079 74.4628 138.189 72.9571L138.184 72.9479L138.178 72.9386C137.788 72.2698 137.432 71.5946 137.111 70.9132ZM150.321 76.6962H151.679C153.436 76.8027 155.406 76.3767 157.589 75.4184C158.973 74.7795 160.091 73.8212 160.943 72.5434C162.327 70.3606 163.205 68.1511 163.578 65.915C163.663 65.3951 163.74 64.8818 163.808 64.3752C164.125 62.0292 164.261 59.8272 164.217 57.7693V54.1756C164.217 52.9368 164.099 51.7097 163.864 50.4944C163.863 50.4912 163.863 50.488 163.862 50.4848C163.744 49.8753 163.596 49.2688 163.418 48.6652C163.262 48.1185 163.093 47.5814 162.912 47.0538C162.35 45.4234 161.667 43.8842 160.863 42.4361C159.372 39.7209 157.243 37.9373 154.474 37.0855C154.261 36.979 153.915 36.8592 153.436 36.7261C152.957 36.593 152.584 36.4732 152.318 36.3668C151.519 36.1538 150.694 36.1272 149.842 36.2869C147.766 36.6596 145.743 37.4049 143.773 38.523C142.282 39.3748 141.191 40.5727 140.499 42.1167C139.434 44.6722 138.821 46.9083 138.662 48.8249C138.583 49.6264 138.519 50.423 138.471 51.2148C138.403 52.3446 138.366 53.4646 138.361 54.5749C138.361 54.6033 138.361 54.6317 138.361 54.6601C138.356 56.3582 138.425 58.0335 138.568 59.6859C138.572 59.7392 138.577 59.7924 138.582 59.8457C138.582 59.8736 138.582 59.9028 138.583 59.9332C138.59 60.3074 138.643 60.8639 138.742 61.6026C138.793 61.9884 138.832 62.3244 138.859 62.6108C138.887 62.9173 138.901 63.1669 138.901 63.3595C139.114 65.9151 139.966 68.4706 141.457 71.0261C142.149 72.1974 143.001 73.2356 144.012 74.1406C146.089 75.8976 148.192 76.7494 150.321 76.6962ZM147.526 44.1132C147.047 44.3794 146.701 44.7521 146.488 45.2312C145.689 47.4673 145.264 49.2775 145.21 50.6617C145.21 50.8215 145.157 51.9661 145.051 54.0957V56.7311C145.317 59.7126 145.53 61.9753 145.689 63.5192C145.902 64.9035 146.488 66.341 147.446 67.8317C147.926 68.5238 148.458 69.0562 149.044 69.4289C149.416 69.6418 149.682 69.7749 149.842 69.8282C151.759 70.1476 153.303 70.0145 154.474 69.4289C154.953 69.1627 155.273 68.8699 155.432 68.5504C156.231 67.2194 156.71 66.128 156.87 65.2762C157.243 62.6141 157.429 60.9637 157.429 60.3248C157.482 58.3549 157.535 56.7045 157.589 55.3735C157.695 52.4453 156.817 49.2243 154.953 45.7104C154.368 44.5923 153.542 43.8736 152.478 43.5542C150.88 43.0218 149.496 43.075 148.325 43.7139C148.218 43.7671 148.072 43.8337 147.886 43.9135C147.699 43.9934 147.579 44.06 147.526 44.1132ZM153.796 55.2289C153.869 53.1647 153.256 50.6124 151.6 47.4887L151.595 47.4802L151.591 47.4716C151.484 47.2672 151.409 47.201 151.402 47.1951M153.796 55.2289C153.742 56.5807 153.688 58.2464 153.635 60.2223L153.633 60.2735V60.3242C153.633 60.3207 153.633 60.3473 153.63 60.4138C153.626 60.48 153.62 60.5695 153.611 60.6857C153.592 60.9195 153.561 61.227 153.517 61.616C153.432 62.3695 153.303 63.3702 153.128 64.628C153.078 64.8308 152.906 65.3141 152.444 66.1393C152.158 66.198 151.695 66.2359 150.988 66.1572C150.897 66.0812 150.764 65.9476 150.601 65.719C149.909 64.629 149.577 63.7346 149.454 63.0211C149.301 61.5359 149.099 59.386 148.846 56.5618V54.1905C148.934 52.4343 148.992 51.2408 149.004 50.7961C149.033 50.0708 149.257 48.9049 149.822 47.2058C149.89 47.1738 149.957 47.1414 150.022 47.1089L150.083 47.0786L150.142 47.0461C150.143 47.0458 150.144 47.0454 150.145 47.0447C150.176 47.0262 150.43 46.8726 151.277 47.1551L151.332 47.1733L151.387 47.1898C151.394 47.1919 151.399 47.1939 151.402 47.1951M166.683 46.3633C166.7 46.7912 166.717 47.2332 166.737 47.6893C166.737 47.6985 166.737 47.7077 166.738 47.7168C166.773 48.5457 166.812 49.4208 166.856 50.3423C166.944 52.0722 167.008 53.3499 167.047 54.1756C167.079 54.8492 167.095 55.2219 167.095 55.2936C167.095 56.0982 167.108 56.9027 167.133 57.7073C167.134 57.7279 167.134 57.7486 167.135 57.7693C167.206 59.981 167.372 62.1927 167.632 64.4044C167.688 64.8813 167.749 65.3583 167.814 65.8352C168.187 68.5504 168.32 70.7333 168.213 72.3837C168.213 72.6499 168.24 73.4485 168.293 74.7795C168.293 75.2054 168.48 75.4184 168.852 75.4184C170.13 75.4716 171.86 75.5515 174.043 75.658H174.283C174.549 75.3918 174.682 75.2321 174.682 75.1788C174.789 74.9659 174.842 74.673 174.842 74.3004V69.1094C174.842 68.6303 174.922 68.3242 175.081 68.1911C175.241 68.058 175.561 67.9648 176.04 67.9115L178.515 67.7518C180.006 67.5921 181.364 67.1928 182.588 66.5539C184.026 65.8086 185.037 64.7171 185.623 63.2796C186.209 61.8954 186.475 60.591 186.422 59.3665V55.2936H186.342V52.5784C186.349 52.2203 186.349 51.8602 186.342 51.4979C186.298 49.2748 185.979 46.9729 185.383 44.5924C184.957 42.9419 184.265 40.6526 183.307 37.7244C183.041 36.979 182.615 36.0207 182.029 34.8494C181.497 33.7846 180.618 32.8529 179.394 32.0543C177.69 30.9895 175.827 30.537 173.804 30.6967C170.822 30.9096 168.746 32.4003 167.575 35.1688C166.882 36.8193 166.536 38.4963 166.536 40.2C166.536 41.7525 166.585 43.807 166.683 46.3633ZM174.043 60.6443C174.043 60.804 174.123 60.9504 174.283 61.0835C174.443 61.2166 174.629 61.2831 174.842 61.2831C176.705 61.1234 177.903 61.0169 178.436 60.9637C179.234 60.804 179.66 60.2716 179.713 59.3665V58.7276C179.66 54.4684 179.633 52.2856 179.633 52.1791C179.633 50.4221 179.42 48.6386 178.995 46.8284C178.688 45.705 178.063 43.5529 177.12 40.3722C177.096 40.2889 177.071 40.2049 177.045 40.1202C177.031 40.0717 177.017 40.023 177.002 39.9741C177.001 39.9696 176.999 39.965 176.998 39.9605C176.95 39.8011 176.893 39.6393 176.826 39.4751C176.79 39.3873 176.752 39.2989 176.71 39.2097C176.571 38.9087 176.401 38.6 176.199 38.2834C175.88 37.751 175.374 37.4848 174.682 37.4848C174.256 37.4316 173.963 37.5913 173.804 37.964C173.499 38.5727 173.34 39.254 173.326 40.0077C173.325 40.0426 173.325 40.0777 173.325 40.1129C173.325 40.1153 173.324 40.1178 173.324 40.1202V45.0715C173.431 48.053 173.484 49.6502 173.484 49.8631C173.644 51.6201 173.777 54.3087 173.884 57.929C173.884 58.4082 173.937 59.3133 174.043 60.6443ZM189.859 66.6338C189.167 69.9879 188.794 72.6499 188.741 74.6198C188.741 75.6314 188.834 76.2303 189.02 76.4167C189.207 76.603 189.752 76.6695 190.658 76.6163C190.871 76.5631 191.443 76.4965 192.375 76.4167C193.306 76.3368 194.012 76.2702 194.491 76.217C194.651 76.1638 194.837 76.0307 195.05 75.8177L195.13 75.4184C195.236 75.0457 195.329 74.6464 195.409 74.2205C195.489 73.7946 195.556 73.3287 195.609 72.8229C195.662 72.3172 195.715 71.9312 195.769 71.665C195.875 70.9728 196.328 68.6835 197.126 64.797C197.179 64.3711 197.419 64.1315 197.845 64.0783C198.644 63.9718 200.64 63.679 203.834 63.1998H204.074C204.713 63.1465 205.112 63.3861 205.272 63.9185C205.378 64.238 205.458 64.6107 205.512 65.0366C206.257 68.3907 206.869 71.5585 207.348 74.5399L207.668 75.8177C207.774 76.1904 208.014 76.3235 208.387 76.217C209.374 75.9571 210.996 75.5449 213.253 74.9804C213.308 74.9668 213.362 74.953 213.418 74.9392C213.844 74.8328 214.136 74.5133 214.296 73.9809C214.456 73.5018 214.483 72.8363 214.376 71.9844C214.368 71.9357 214.359 71.8824 214.35 71.8247C214.342 71.7782 214.334 71.7288 214.325 71.6766C214.254 71.2381 214.15 70.5953 214.016 69.7482C213.928 69.1961 213.827 68.5573 213.713 67.8317C213.692 67.7009 213.671 67.5674 213.65 67.431C213.519 66.6002 213.372 65.6648 213.209 64.6249C213.173 64.3946 213.136 64.1591 213.098 63.9185C212.619 60.5644 212.113 57.6894 211.581 55.2936C211.155 53.4835 210.782 51.5136 210.463 49.384C210.143 47.2011 209.877 45.7104 209.664 44.9118C209.451 44.0067 208.759 41.6375 207.588 37.8042C207.588 37.751 207.428 37.3251 207.109 36.5265C206.417 36.3668 206.044 36.2869 205.991 36.2869C204.606 36.1804 202.796 36.2337 200.56 36.4466C199.069 36.5531 198.111 36.6063 197.685 36.6063C197.206 36.6063 196.887 36.593 196.727 36.5664C196.567 36.5398 196.354 36.5531 196.088 36.6063C195.822 36.6596 195.675 36.6995 195.649 36.7261L195.409 36.9657C195.276 37.0988 195.21 37.2186 195.21 37.3251C195.21 37.4316 195.156 37.6312 195.05 37.924C194.943 38.2168 194.864 38.4964 194.81 38.7626C194.704 38.9223 194.544 39.5079 194.331 40.5195C194.278 40.7857 194.185 41.2116 194.052 41.7972C193.919 42.3829 193.852 42.7556 193.852 42.9153C193.266 45.4176 192.974 46.722 192.974 46.8284C192.601 48.6386 192.388 50.4221 192.335 52.1791C192.281 53.3504 192.148 54.5483 191.935 55.7728C191.35 58.8075 190.658 62.4278 189.859 66.6338ZM198.963 55.3735C198.91 55.48 198.857 55.8526 198.803 56.4915C198.803 56.5448 198.857 56.6246 198.963 56.7311C199.07 56.8376 199.149 56.8908 199.203 56.8908C199.735 56.9441 200.054 56.9441 200.161 56.8908C200.427 56.8642 200.853 56.8043 201.439 56.7111C201.488 56.7033 201.538 56.6952 201.59 56.6869C201.882 56.6397 202.211 56.585 202.577 56.5226C202.589 56.5206 202.6 56.5186 202.612 56.5166C202.616 56.5159 202.62 56.5152 202.624 56.5145C202.947 56.4594 203.297 56.3985 203.675 56.3318C203.781 56.3318 203.861 56.3052 203.914 56.2519C204.074 56.0922 204.154 55.9857 204.154 55.9325C204.154 55.8793 204.181 55.5598 204.234 54.9742C204.127 53.6432 204.074 52.9244 204.074 52.818C203.875 51.3999 203.705 50.1911 203.564 49.1916C203.404 48.052 203.281 47.1845 203.196 46.5889C203.19 46.5255 203.183 46.4587 203.174 46.3886C203.174 46.3876 203.173 46.3866 203.173 46.3857C203.171 46.3664 203.168 46.347 203.166 46.3272C203.128 46.05 203.068 45.7222 202.984 45.3439C202.942 45.153 202.894 44.9492 202.84 44.7326C202.816 44.6352 202.791 44.5352 202.764 44.4326C202.724 44.2788 202.682 44.119 202.637 43.9535C202.583 43.634 202.37 43.4477 201.998 43.3945C201.572 43.3412 201.199 43.3412 200.88 43.3945C200.72 43.3945 200.56 43.5276 200.401 43.7938C200.303 43.8911 200.25 44.0773 200.242 44.3526C200.241 44.3785 200.241 44.4052 200.241 44.4326C200.234 44.4931 200.227 44.5531 200.22 44.6125C200.139 45.3156 200.069 45.9421 200.01 46.4921C199.995 46.6268 199.981 46.7568 199.968 46.8823C199.962 46.94 199.956 46.9967 199.95 47.0525C199.824 48.2531 199.762 49.0036 199.762 49.3041C199.76 49.3265 199.758 49.3491 199.756 49.3718C199.681 50.3212 199.533 51.5623 199.311 53.0951C199.311 53.0956 199.311 53.0962 199.311 53.0967C199.308 53.1184 199.305 53.1403 199.301 53.1621C199.3 53.1752 199.298 53.1883 199.296 53.2014C199.266 53.4064 199.235 53.6165 199.203 53.8318C199.16 54.1144 199.115 54.4058 199.069 54.7061C199.035 54.9239 198.999 55.1464 198.963 55.3735ZM217.734 53.2173C217.627 57.2635 217.467 60.032 217.254 61.5227C217.254 61.576 217.201 62.1084 217.095 63.1199C217.068 63.593 217.043 64.031 217.021 64.4337C216.91 66.4332 216.855 67.5658 216.855 67.8317C216.802 68.2576 216.762 68.9231 216.735 69.8282C216.713 70.586 216.7 71.1758 216.696 71.5977C216.696 71.631 216.696 71.6632 216.696 71.6944C216.696 71.7401 216.695 71.7835 216.695 71.8247C216.644 72.6523 216.793 73.6557 217.143 74.835C217.153 74.8696 217.164 74.9044 217.175 74.9392C217.175 74.9397 217.175 74.9401 217.175 74.9405C217.279 75.2504 217.483 75.4347 217.787 75.4935C217.796 75.4952 217.805 75.4968 217.813 75.4983C218.026 75.5515 218.186 75.5781 218.293 75.5781C222.658 75.6314 226.704 75.4716 230.431 75.099L231.949 74.7795C233.439 74.4601 234.691 73.5816 235.702 72.1441C236.697 70.6786 237.562 69.0588 238.3 67.2845C238.312 67.254 238.325 67.2234 238.337 67.1928C238.71 66.2345 238.897 65.356 238.897 64.5574C238.893 64.4069 238.889 64.2597 238.886 64.1157C238.886 64.1129 238.886 64.1101 238.886 64.1073C238.836 62.1165 238.786 60.7492 238.737 60.0054C238.621 58.8771 238.356 57.8354 237.942 56.8801C237.593 56.0772 237.14 55.3355 236.581 54.6547L235.862 53.6964C236.288 52.9511 236.501 52.5518 236.501 52.4985C236.98 51.6999 237.273 50.9546 237.379 50.2624C238.178 45.4176 236.607 41.4512 232.667 38.3633C232.295 38.0971 231.895 37.9107 231.47 37.8042C229.074 37.3251 226.758 37.2186 224.522 37.4848C222.818 37.6445 221.381 37.7244 220.209 37.7244C219.837 37.7776 219.384 37.8309 218.852 37.8841C218.319 37.9373 217.973 38.2568 217.813 38.8424C217.654 39.3216 217.6 40.2 217.654 41.4778C217.76 43.8204 217.813 45.2579 217.813 45.7903C217.813 48.1861 217.787 50.6617 217.734 53.2173ZM232.108 65.4359C232.375 64.0516 232.295 62.2681 231.869 60.0852C231.603 58.5945 230.644 57.7959 228.994 57.6894C228.674 57.6362 228.382 57.6362 228.115 57.6894C227.477 57.7427 226.438 57.8492 225.001 58.0089C224.575 58.0621 224.362 58.3017 224.362 58.7276V63.9185H224.282V68.3907C224.282 68.6037 224.309 68.9763 224.362 69.5087C224.362 69.8814 224.548 70.0944 224.921 70.1476C227.796 70.3606 229.926 69.4023 231.31 67.2727C231.736 66.687 232.002 66.0748 232.108 65.4359ZM228.158 65.1573L228.182 65.1206L228.24 65.0401C228.304 64.9526 228.334 64.8926 228.348 64.8608C228.361 64.8305 228.364 64.8159 228.364 64.8119L228.372 64.7654L228.381 64.7191C228.501 64.0925 228.521 63.0544 228.264 61.4863C228.23 61.4894 228.194 61.4926 228.158 61.4959V65.1573ZM224.522 50.4222C224.575 50.5819 224.655 50.715 224.761 50.8215C224.868 50.9279 225.001 50.9812 225.161 50.9812C226.545 50.9279 227.37 50.8747 227.636 50.8215C228.595 50.715 229.393 50.3689 230.032 49.7833C230.724 49.1976 231.017 48.4523 230.91 47.5472C230.698 46.1629 230.059 45.0183 228.994 44.1132C228.745 43.8645 228.52 43.7087 228.317 43.6459C228.303 43.6415 228.289 43.6375 228.275 43.634C227.708 43.4449 227.161 43.3243 226.635 43.2723C226.235 43.2329 225.848 43.2329 225.472 43.2723C225.368 43.2833 225.264 43.2974 225.161 43.3146C224.788 43.3678 224.602 43.5808 224.602 43.9535C224.575 44.0866 224.548 44.4128 224.522 44.932C224.495 45.4511 224.468 46.1631 224.442 47.068H224.522V50.4222ZM241.721 56.1143C241.725 56.3171 241.73 56.5227 241.735 56.7311C241.76 57.8205 241.784 58.8069 241.806 59.6905C241.807 59.7274 241.808 59.7641 241.809 59.8005C241.857 61.6688 241.899 63.0681 241.935 63.9984C241.94 64.1614 241.947 64.3235 241.953 64.4846C241.954 64.5089 241.955 64.5332 241.956 64.5574C242.002 65.6925 242.064 66.78 242.142 67.82C242.153 67.9578 242.163 68.0948 242.174 68.231C242.281 69.775 242.6 71.0793 243.133 72.1441C243.771 73.3687 244.703 74.0608 245.928 74.2205C247.046 74.3802 248.244 74.5133 249.521 74.6198C251.172 74.7795 252.662 74.886 253.993 74.9392C255.591 74.9925 257.081 74.9925 258.466 74.9392C258.945 74.9392 259.77 74.8328 260.941 74.6198C261.58 74.5133 261.9 74.1673 261.9 73.5816V69.2692C261.9 68.7368 261.554 68.4439 260.861 68.3907C260.489 68.3907 259.677 68.3774 258.426 68.3508C257.175 68.3242 256.203 68.2842 255.511 68.231C254.978 68.1777 253.035 68.0713 249.681 67.9115C249.628 67.9115 249.575 67.8849 249.521 67.8317H249.441C249.069 67.7784 248.882 67.5655 248.882 67.1928C248.669 63.4127 248.536 61.2565 248.483 60.7241C248.483 59.3399 248.457 57.3567 248.403 54.7745C248.35 52.1924 248.323 50.5686 248.323 49.9031C248.323 49.2376 248.27 47.8933 248.164 45.8701C248.164 45.2312 248.137 44.3262 248.084 43.1549C248.031 41.9836 247.977 41.1584 247.924 40.6792V39.2817C247.924 39.0421 247.911 38.8291 247.884 38.6428C247.858 38.4564 247.778 38.2967 247.645 38.1636C247.511 38.0305 247.338 37.964 247.126 37.964C245.102 38.0704 243.452 38.1503 242.174 38.2035C241.589 38.2568 241.296 38.6028 241.296 39.2417C241.242 39.4014 241.216 40.3864 241.216 42.1965C241.269 42.8354 241.296 43.2081 241.296 43.3146C241.455 46.7752 241.535 48.5587 241.535 48.6652C241.585 50.4665 241.647 52.9495 241.721 56.1143ZM276.198 76.6962H277.556C279.313 76.8027 281.282 76.3767 283.465 75.4184C284.85 74.7795 285.968 73.8212 286.819 72.5434C288.204 70.3606 289.082 68.1511 289.455 65.915C289.934 62.9868 290.147 60.2716 290.094 57.7693V54.1756C290.094 52.3122 289.827 50.4754 289.295 48.6652C288.656 46.4291 287.804 44.3528 286.74 42.4361C285.249 39.7209 283.119 37.9373 280.351 37.0855C280.138 36.979 279.792 36.8592 279.313 36.7261C278.833 36.593 278.461 36.4732 278.195 36.3668C277.396 36.1538 276.571 36.1272 275.719 36.2869C273.642 36.6596 271.619 37.4049 269.649 38.523C268.159 39.3748 267.067 40.5727 266.375 42.1167C265.31 44.6722 264.698 46.9083 264.538 48.8249C264.166 52.605 264.139 56.2785 264.459 59.8457C264.459 60.2183 264.512 60.804 264.618 61.6026C264.725 62.4012 264.778 62.9868 264.778 63.3595C264.991 65.9151 265.843 68.4706 267.334 71.0261C268.026 72.1974 268.877 73.2356 269.889 74.1406C271.965 75.8976 274.068 76.7494 276.198 76.6962ZM273.403 44.1132C272.924 44.3794 272.578 44.7521 272.365 45.2312C271.566 47.4673 271.14 49.2775 271.087 50.6617C271.087 50.8215 271.034 51.9661 270.927 54.0957V56.7311C271.193 59.7126 271.406 61.9753 271.566 63.5192C271.779 64.9035 272.365 66.341 273.323 67.8317C273.802 68.5238 274.335 69.0562 274.92 69.4289C275.293 69.6418 275.559 69.7749 275.719 69.8282C277.636 70.1476 279.179 70.0145 280.351 69.4289C280.83 69.1627 281.149 68.8699 281.309 68.5504C282.108 67.2194 282.587 66.128 282.747 65.2762C283.119 62.6141 283.306 60.9637 283.306 60.3248C283.359 58.3549 283.412 56.7045 283.465 55.3735C283.572 52.4453 282.693 49.2243 280.83 45.7104C280.244 44.5923 279.419 43.8736 278.354 43.5542C276.757 43.0218 275.373 43.075 274.202 43.7139C274.095 43.7671 273.949 43.8337 273.762 43.9135C273.576 43.9934 273.456 44.06 273.403 44.1132ZM279.672 55.2309C279.746 53.1664 279.134 50.6135 277.477 47.4887L277.472 47.4802L277.468 47.4716C277.36 47.2672 277.286 47.201 277.279 47.1951M279.672 55.2309C279.618 56.5824 279.565 58.2474 279.511 60.2223L279.51 60.2735V60.3239C279.51 60.3239 279.51 60.3512 279.506 60.4138C279.503 60.48 279.497 60.5695 279.487 60.6857C279.468 60.9195 279.438 61.227 279.394 61.616C279.309 62.3695 279.18 63.3702 279.005 64.628C278.954 64.8307 278.782 65.314 278.32 66.1393C278.035 66.198 277.571 66.2359 276.865 66.1572C276.774 66.0812 276.641 65.9475 276.477 65.7188C275.785 64.629 275.454 63.7346 275.331 63.0211C275.178 61.5359 274.976 59.386 274.723 56.5618V54.1905C274.811 52.4342 274.868 51.2408 274.88 50.7961C274.91 50.0708 275.133 48.9048 275.698 47.2058C275.767 47.1738 275.834 47.1414 275.899 47.1089L275.96 47.0786L276.019 47.0461C276.02 47.0458 276.02 47.0454 276.021 47.0447C276.052 47.0262 276.307 46.8726 277.154 47.1551L277.208 47.1733L277.264 47.1898C277.271 47.1919 277.276 47.1939 277.279 47.1951M129.235 35.6081L129.469 34.6715L129.235 35.6081Z" fill="white"/>
<path fill-rule="evenodd" clip-rule="evenodd" d="M82.7581 40.5905C85.999 41.295 89.9445 42.7746 94.5944 45.0291C93.1854 50.8063 91.5649 54.9631 89.7331 57.4995C86.9854 61.304 81.9127 62.5722 79.3763 62.9949C78.1082 63.2063 73.3525 63.2063 68.5176 63.2063C63.6827 63.2063 58.7685 63.2063 57.1833 63.4176C54.0128 63.8404 50.8424 65.3199 51.2651 68.4903C51.5469 70.604 52.5333 74.8312 54.2242 81.1721C52.8151 78.4948 51.6174 76.3812 50.631 74.8312C49.1515 72.5062 46.6151 67.6449 51.2651 63.2063C53.8485 60.7403 60.8682 60.4925 67.6848 60.2518C73.1377 60.0593 78.4605 59.8714 81.2786 58.5563C85.5058 56.5836 88.1127 53.6245 89.099 49.6791C88.3945 49.1154 87.6195 48.3404 86.774 47.3541C85.9286 46.3677 85.3649 44.7473 85.0831 42.4927C81.1377 41.9291 77.615 41.0837 74.515 39.9564L74.3289 39.8887C69.7248 38.2148 64.5472 36.3323 62.0446 34.0382C59.5082 31.7133 52.7446 29.3883 49.5742 31.7133C47.4606 33.2632 47.2492 37.7723 48.9401 45.2405C45.8401 45.6632 42.4583 46.6495 38.7947 48.1995C35.1311 49.7495 32.5947 52.4972 31.1857 56.4427C32.6149 55.4012 33.8126 54.6262 34.7788 54.1177C35.745 53.6091 37.295 53.0455 39.4288 52.4268C36.6106 55.104 34.7084 58.204 33.722 61.7267C33.1428 63.7952 33.1224 65.8636 33.6606 67.9321C33.9128 68.9016 34.5674 70.3558 35.6243 72.2949C35.6664 70.8061 35.7368 69.6788 35.8356 68.9131C35.9344 68.1473 36.1458 67.0905 36.4697 65.7426C38.0197 69.9699 40.0629 74.1267 42.5992 78.213C45.1356 82.2994 45.9106 89.1334 44.9242 98.7152C42.247 94.4879 39.0765 91.1061 35.4129 88.5698C33.5829 87.3029 31.4483 86.1063 29.1885 84.8395C24.662 82.3022 19.6332 79.4833 15.5448 75.254C11.4585 71.0267 9.41531 65.954 9.41531 60.0358L6.66759 64.4745C5.25851 57.429 5.25851 51.8632 6.66759 47.7768C8.07668 43.6905 9.97894 39.5337 12.3744 35.3064L6.24487 38.6882C6.94941 36.2928 8.56986 33.686 11.1062 30.8678C14.9107 26.6406 18.7153 24.3156 31.397 18.8201C39.8515 15.1565 46.6856 11.4224 51.8992 7.61792C51.8089 11.0048 51.5975 13.5411 51.2651 15.227C50.94 16.876 50.165 19.3419 48.9401 22.6247C54.8583 22.6247 63.7355 26.8519 66.2719 29.1769C67.3541 30.169 68.0516 31.4305 68.7254 32.6494C69.6308 34.2869 70.4936 35.8476 72.19 36.5746C72.908 36.8823 73.6135 37.2149 74.3399 37.5573C76.6069 38.626 79.0764 39.7901 82.7581 40.5905ZM54.4355 21.5679C53.402 21.1249 52.3452 20.9135 51.2651 20.9338L52.5333 17.552C54.2475 16.8191 55.9384 15.9736 57.606 15.0156C59.2736 14.0576 60.894 13.0008 62.4673 11.8452C62.2741 13.751 61.7809 15.5124 60.9878 17.1292C60.1946 18.7461 58.9969 20.7892 57.3946 23.2588C56.4555 22.5744 55.4691 22.0108 54.4355 21.5679ZM56.9719 38.8996C55.4488 38.5396 53.6875 37.6237 51.6878 36.1519C55.2105 35.0246 57.7469 34.7428 59.2969 35.3064C60.8469 35.8701 62.1855 37.0678 63.3128 38.8996C60.6086 39.2596 58.495 39.2596 56.9719 38.8996Z" fill="#303030"/>
<path fill-rule="evenodd" clip-rule="evenodd" d="M99.0083 42.9508L98.2821 45.9285C96.8424 51.8313 95.0837 56.574 92.8102 59.7219C89.102 64.8564 82.6262 66.3014 80.0004 66.739C79.0148 66.9033 77.1683 66.9504 75.3359 66.9752C73.3585 67.002 70.9404 67.002 68.5378 67.002H68.5176C66.0928 67.002 63.6825 67.0021 61.6812 67.0281C59.5829 67.0554 58.2061 67.1106 57.6849 67.1801C56.4098 67.3501 55.5206 67.6969 55.0965 68.0026C55.073 68.0196 55.0528 68.035 55.0357 68.0488C55.2916 69.9059 56.2075 73.8781 57.8918 80.1941L50.8653 82.94C49.4781 80.3042 48.3352 78.2935 47.4287 76.8691C46.6128 75.5868 45.2185 73.1906 44.8788 70.2465C44.5101 67.0512 45.4248 63.5338 48.6443 60.4606C49.8567 59.3033 51.3673 58.5993 52.768 58.1351C54.2005 57.6604 55.7847 57.3509 57.3738 57.1338C60.4937 56.7075 64.1097 56.5799 67.4323 56.4627L67.5509 56.4585C70.3093 56.3611 72.8737 56.269 75.0937 56.048C77.4017 55.8182 78.8858 55.4843 79.6735 55.1167C82.1687 53.9523 83.7568 52.4815 84.6821 50.7113C84.4182 50.4271 84.1549 50.1309 83.8921 49.8243C82.9231 48.6938 82.2895 47.3035 81.8725 45.8163C78.7554 45.2469 75.8665 44.4867 73.2179 43.5236M73.2179 43.5236L73.032 43.456L72.9697 43.4334C71.7131 42.9765 70.3682 42.4875 69.026 41.9682L63.8137 42.6621C60.9399 43.0447 58.2878 43.1109 56.0988 42.5935C54.7182 42.2672 53.3332 41.6658 51.9562 40.8703C52.1205 41.9221 52.3467 43.0973 52.6422 44.4023L53.5568 48.4418L49.453 49.0014C46.761 49.3685 43.7077 50.2424 40.2737 51.6953C40.2119 51.7214 40.1506 51.748 40.0898 51.775L42.0431 55.1787C40.4749 56.6685 39.2759 58.2815 38.4167 60.0265L40.0335 64.436C41.4887 68.4047 43.415 72.3297 45.8243 76.2113C49.07 81.4406 49.7001 89.3893 48.7 99.1039L47.5784 110L41.7176 100.746C39.279 96.8958 36.4493 93.9039 33.2524 91.6906C31.5988 90.5458 29.6318 89.4395 27.3325 88.1506L27.1617 88.0549C22.7316 85.5719 17.293 82.5237 12.8158 77.8921C10.5502 75.5484 8.81468 72.9616 7.61616 70.1536L4.83203 74.651L2.94561 65.2189C1.48216 57.9016 1.34978 51.5549 3.07924 46.5395C3.33343 45.8023 3.60239 45.0641 3.88602 44.3248L0 46.4688L2.60341 37.6172C3.52949 34.4685 5.5477 31.3699 8.28489 28.3286C12.692 23.4318 17.1923 20.8388 29.8878 15.3374C38.1845 11.7422 44.7482 8.13735 49.6618 4.55179L55.8994 0L55.6936 7.71911C55.6535 9.2224 55.5895 10.6031 55.497 11.8489C55.5698 11.8076 55.6426 11.7661 55.7153 11.7243C57.258 10.8381 58.7596 9.85898 60.2203 8.78607L67.1052 3.7288L66.2437 12.228C66.008 14.5532 65.3995 16.7546 64.3956 18.801C63.8664 19.8796 63.1951 21.0916 62.3919 22.4298C65.0289 23.6645 67.433 25.0921 68.8367 26.3789C70.3836 27.7969 71.3404 29.5315 71.9692 30.6713C71.9958 30.7196 72.0219 30.7668 72.0473 30.8129C72.5314 31.6884 72.8266 32.2038 73.1412 32.6027C73.4071 32.9397 73.5714 33.037 73.6852 33.0858C74.4655 33.4202 75.2226 33.7771 75.9302 34.1107L75.9584 34.124C78.1868 35.1744 80.3291 36.1781 83.5645 36.8814C87.2146 37.6749 91.4622 39.2921 96.2504 41.6137L99.0083 42.9508M60.3549 25.67C59.2011 25.145 57.965 24.6437 56.7054 24.2047C55.7066 23.8567 54.6931 23.548 53.6942 23.2978C53.3992 23.2239 53.1055 23.1551 52.8138 23.092C52.3017 22.9811 51.7958 22.8875 51.3003 22.8139C50.479 22.6918 49.6861 22.6247 48.9401 22.6247C49.2389 21.8238 49.511 21.0716 49.7562 20.368C49.9385 19.845 50.106 19.3489 50.2588 18.8796C50.4914 18.1648 50.6897 17.5123 50.8537 16.9221C51.0309 16.2843 51.1681 15.7192 51.2651 15.227C51.2934 15.0835 51.3208 14.9339 51.3474 14.7782C51.3955 14.4957 51.4407 14.193 51.4831 13.87C51.5413 13.4257 51.5941 12.943 51.6415 12.4221C51.7638 11.0764 51.8497 9.47503 51.8992 7.61794C50.6851 8.50395 49.383 9.38614 47.9931 10.2645C43.4146 13.1579 37.8826 16.0097 31.397 18.8202C18.7153 24.3156 14.9108 26.6406 11.1062 30.8678C10.645 31.3803 10.214 31.8858 9.81339 32.3843C8.01081 34.6271 6.82131 36.7284 6.24489 38.6882L12.3744 35.3064C11.2216 37.3408 10.183 39.3588 9.25865 41.3606C8.26226 43.5183 7.39858 45.657 6.66762 47.7768C5.6704 50.6688 5.37892 54.3017 5.79317 58.6757C5.83539 59.1214 5.88492 59.5748 5.94179 60.0359C6.11542 61.4437 6.35736 62.9232 6.66762 64.4745L9.41533 60.0359C9.41533 61.3539 9.51667 62.63 9.71935 63.8641C9.83896 64.5925 9.99387 65.3062 10.1841 66.0054C11.1187 69.4409 12.9057 72.5238 15.5448 75.254C19.6332 79.4833 24.662 82.3022 29.1885 84.8396C31.4483 86.1063 33.583 87.3029 35.4129 88.5698C37.6113 90.0917 39.632 91.9181 41.4752 94.0488C42.7038 95.469 43.8535 97.0245 44.9243 98.7152C45.1433 96.5869 45.2755 94.5942 45.3208 92.737C45.4794 86.233 44.5722 81.3917 42.5993 78.213C41.4336 76.335 40.3721 74.4421 39.4148 72.5343C39.3923 72.4896 39.3699 72.4449 39.3476 72.4002C39.067 71.8379 38.7955 71.2744 38.5329 70.7095C38.2952 70.1981 38.0649 69.6856 37.8421 69.172C37.5388 68.4733 37.2494 67.7727 36.9736 67.07C36.8002 66.6284 36.6323 66.1859 36.4697 65.7426C36.3332 66.3109 36.2166 66.8274 36.1201 67.2921C35.9876 67.9298 35.8928 68.4702 35.8357 68.9131C35.7369 69.6788 35.6664 70.8061 35.6243 72.2949C34.8059 70.7934 34.2287 69.5826 33.8928 68.6624C33.7949 68.3943 33.7175 68.1508 33.6606 67.9321C33.5673 67.5737 33.4908 67.2152 33.4311 66.8568C33.3266 66.2292 33.2735 65.6017 33.2718 64.9741C33.2689 63.8917 33.4189 62.8092 33.722 61.7268C34.0425 60.5823 34.4596 59.4824 34.9734 58.4271C35.2921 57.7727 35.6479 57.1355 36.0408 56.5155C36.2643 56.1628 36.4999 55.8157 36.7475 55.4741C37.5232 54.4039 38.417 53.3881 39.4288 52.4268C39.056 52.5349 38.7009 52.6413 38.3637 52.7461C37.4625 53.0261 36.6885 53.294 36.0419 53.55C35.8254 53.6357 35.6232 53.7201 35.4352 53.8031C35.1926 53.9102 34.9739 54.0151 34.7788 54.1177C34.0123 54.5212 33.1 55.0923 32.0421 55.8312C31.7665 56.0236 31.481 56.2275 31.1857 56.4427C31.797 54.7311 32.6204 53.2449 33.6559 51.9842C34.5239 50.9275 35.5408 50.0291 36.7068 49.2891C37.3565 48.8768 38.0525 48.5136 38.7947 48.1996C41.0414 47.2491 43.182 46.5105 45.2167 45.9839C46.5 45.6518 47.7412 45.404 48.9401 45.2405C48.637 43.9017 48.395 42.658 48.2142 41.5094C48.0131 40.2324 47.8876 39.0729 47.8376 38.031C47.7382 35.9573 47.9381 34.3492 48.4374 33.2067C48.7203 32.5594 49.0992 32.0616 49.5742 31.7133C51.2672 30.4718 53.9847 30.5561 56.536 31.2584C57.8664 31.6246 59.1515 32.1588 60.2227 32.7606C60.9443 33.166 61.5688 33.6021 62.0446 34.0383C63.1121 35.0168 64.6662 35.9204 66.455 36.7649C66.6143 36.8401 66.7755 36.9149 66.9383 36.9891C68.2947 37.6079 69.7679 38.1949 71.2549 38.7565C71.9706 39.0269 72.6896 39.2914 73.4002 39.5507C73.7117 39.6643 74.0216 39.777 74.329 39.8888L74.515 39.9564C76.9049 40.8255 79.5461 41.527 82.4385 42.0611C83.2979 42.2198 84.1794 42.3637 85.0831 42.4928C85.2232 43.613 85.4328 44.5766 85.7119 45.3837C85.9946 46.201 86.3487 46.8578 86.774 47.3541C87.6195 48.3405 88.3945 49.1155 89.099 49.6791C88.1127 53.6245 85.5059 56.5836 81.2786 58.5563C81.0114 58.681 80.7216 58.7956 80.4114 58.901C79.9134 59.0702 79.3627 59.2157 78.7675 59.3416C76.0222 59.9224 72.3318 60.0854 68.5176 60.2223C68.2406 60.2322 67.9629 60.242 67.6849 60.2518C63.872 60.3864 59.9956 60.5233 56.8675 61.0493C54.4033 61.4637 52.4035 62.1197 51.2651 63.2063C49.2967 65.0853 48.616 67.04 48.5979 68.846C48.5732 71.3062 49.7778 73.4905 50.631 74.8312C51.6174 76.3812 52.8151 78.4949 54.2242 81.1721C53.4443 78.2476 52.8143 75.7727 52.3342 73.7474C51.7733 71.3815 51.417 69.6292 51.2651 68.4904C51.0527 66.8975 51.7473 65.7315 52.8932 64.9118C54.0281 64.1 55.6057 63.628 57.1833 63.4177C58.6889 63.2169 63.1976 63.2068 67.7892 63.2063C68.0319 63.2063 68.2748 63.2063 68.5176 63.2063C73.3525 63.2063 78.1082 63.2063 79.3764 62.9949C79.9593 62.8978 80.6762 62.756 81.4681 62.549C84.1217 61.8553 87.6169 60.4296 89.7331 57.4995C91.5649 54.9632 93.1854 50.8064 94.5945 45.0291C92.5694 44.0473 90.678 43.2124 88.9202 42.5245C88.578 42.3906 88.2409 42.2623 87.9089 42.1396C86.9873 41.7988 86.1048 41.501 85.2612 41.2461C84.3848 40.9813 83.5504 40.7627 82.7582 40.5905C79.5541 39.894 77.2682 38.922 75.2347 37.9771C75.1745 37.9491 75.1144 37.9211 75.0546 37.8932C75.0546 37.8932 75.0546 37.8932 75.0546 37.8932C74.8134 37.7805 74.5755 37.6684 74.3399 37.5573C73.6137 37.215 72.9079 36.8823 72.19 36.5746C70.9579 36.0466 70.1656 35.0788 69.4773 33.9612C69.2179 33.54 68.9733 33.0976 68.7255 32.6494C68.0516 31.4305 67.3542 30.169 66.2719 29.1769C65.1992 28.1936 62.9924 26.8701 60.3549 25.67ZM54.9874 21.818C55.3179 21.9761 55.6434 22.1469 55.9639 22.3305C56.4524 22.6103 56.9293 22.9197 57.3946 23.2588C57.9255 22.4406 58.4119 21.6692 58.854 20.9447C59.0456 20.6306 59.2289 20.3252 59.4038 20.0287C59.9407 19.1187 60.399 18.2915 60.7786 17.5471C60.8512 17.4048 60.921 17.2655 60.9878 17.1293C61.781 15.5124 62.2742 13.7511 62.4673 11.8452C60.9688 12.9459 59.4274 13.957 57.8433 14.8785C57.7643 14.9244 57.6852 14.9701 57.606 15.0156C56.7048 15.5334 55.7967 16.0182 54.8818 16.4702C54.3129 16.7513 53.7414 17.0197 53.1672 17.2754C52.9563 17.3693 52.745 17.4615 52.5333 17.552L51.2651 20.9338C52.0133 20.9198 52.7504 21.0169 53.4763 21.2252C53.7982 21.3175 54.118 21.4318 54.4356 21.5679C54.621 21.6474 54.805 21.7307 54.9874 21.818ZM56.7871 38.8535C55.3069 38.4651 53.6071 37.5645 51.6879 36.1519C53.4102 35.6007 54.8968 35.2517 56.1476 35.1047C56.5423 35.0584 56.9135 35.0321 57.2612 35.026C58.0653 35.0119 58.7439 35.1053 59.2969 35.3064C59.3547 35.3275 59.4122 35.3493 59.4694 35.3721C59.788 35.499 60.0975 35.6532 60.3978 35.8347C61.49 36.4949 62.4616 37.5165 63.3128 38.8996C63.0419 38.9357 62.7769 38.9681 62.5178 38.997C60.967 39.1696 59.6286 39.2128 58.5026 39.1264C57.9392 39.0832 57.429 39.0076 56.9719 38.8996C56.9107 38.8851 56.8491 38.8698 56.7871 38.8535Z" fill="white"/>
</svg>
