<svg width="187" height="75" viewBox="0 0 187 75" fill="none" xmlns="http://www.w3.org/2000/svg">
<path d="M2.68225 19.5608L39.6649 75L24.3814 54.5783L2.24277 22.2091L2.1453 54.5783H0V19.5608H2.68225ZM152.109 19.7081L163.909 36.0888L175.758 19.7081H178.294L165.226 37.7074L163.909 39.326L152.645 54.7256L137.324 74.2864L162.495 37.7074L149.524 19.7081H152.109ZM52.6888 19.5608V21.4246H31.4282V35.4509H51.4208V37.3148H31.4282V52.7144H52.9325V54.5783H29.2821V19.5608H52.6888ZM94.8788 0L69.7075 36.579L82.6785 54.5783H80.0937L68.2933 38.1976L56.4441 54.5783H53.9081L66.9765 36.579L54.7862 19.5608H57.2727L68.2933 34.9604L79.5576 19.5608L94.8788 0ZM110.278 19.5608V21.4246H97.9905V54.5774H95.8443V21.4246H83.6061L83.6053 19.5608H110.278ZM117.707 19.5608V54.5774H115.561V19.5608H117.707ZM146.382 19.5342V21.3981L126.389 21.3974V34.6928L138.682 34.6943V36.5582L126.389 36.5575L126.389 54.5509H124.243V19.5342H146.382ZM178.977 44.5098V49.8536C178.977 51.3722 178.101 52.2466 176.65 52.2466C175.288 52.2466 174.354 51.3982 174.354 50.0997H175.502C175.518 50.7229 175.972 51.1412 176.64 51.1412C177.386 51.1412 177.809 50.6918 177.809 49.8485V44.5098H178.977ZM183.449 44.3259C184.978 44.3259 186.096 45.2212 186.163 46.4929H185.025C184.916 45.7975 184.311 45.3624 183.434 45.3624C182.509 45.3624 181.894 45.8075 181.894 46.4879C181.894 47.0271 182.291 47.3362 183.272 47.5664L184.102 47.7705C185.646 48.1317 186.283 48.7599 186.283 49.8956C186.283 51.3403 185.165 52.2466 183.381 52.2466C181.712 52.2466 180.589 51.3823 180.506 50.0316L181.665 50.0325C181.764 50.749 182.463 51.2042 183.471 51.2042C184.409 51.2042 185.098 50.717 185.098 50.0476C185.098 49.4722 184.66 49.1262 183.663 48.891L182.692 48.6558C181.331 48.3366 180.709 47.6764 180.709 46.5668C180.709 45.2212 181.805 44.3259 183.449 44.3259ZM172.245 50.5919C172.689 50.5919 173.012 50.9321 173.012 51.3722C173.012 51.8115 172.689 52.1517 172.245 52.1517C171.806 52.1517 171.478 51.8115 171.478 51.3722C171.478 50.9321 171.806 50.5919 172.245 50.5919Z" fill="white"/>
</svg>
