<svg width="365" height="35" viewBox="0 0 365 35" fill="none" xmlns="http://www.w3.org/2000/svg">
<path fill-rule="evenodd" clip-rule="evenodd" d="M48.3839 1.64506V0H35.1831V1.64506C39.2057 1.64506 40.1122 2.89303 39.149 5.95624L33.9367 21.953L26.7981 0H25.5517L18.583 21.8963L13.4274 5.95624C12.3509 2.66613 13.1441 1.64506 17.9032 1.64506V0H0V1.64506C4.70242 1.64506 5.4956 2.72285 6.74202 6.63695L15.9202 35H17.11L24.1353 13.047L31.2739 35H32.4637L41.6419 6.63695C42.8883 2.77958 43.6815 1.64506 48.3839 1.64506ZM79.0763 20.3766C79.0763 28.2989 72.2553 34.8089 63.9329 34.8089C55.5658 34.8089 48.7447 28.2989 48.7447 20.3766C48.7447 12.4544 55.5658 5.9443 63.9329 5.9443C72.2553 5.9443 79.0763 12.4544 79.0763 20.3766ZM72.9829 20.3766C72.9829 14.8682 70.3439 8.12975 63.9329 8.12975C57.4771 8.12975 54.8829 14.8667 54.8829 20.3766C54.8829 25.885 57.4771 32.625 63.9329 32.625C70.3439 32.625 72.9829 25.8865 72.9829 20.3766ZM99.9152 22.062L104.327 26.8882C108.329 31.3038 110.057 32.3518 112.83 32.716V34.0357H102.963L94.8669 22.062H93.5489V27.3883C93.5489 31.9413 94.1408 32.716 97.9143 32.716V34.0357H83.5447V32.716C87.3197 32.716 87.8654 31.9413 87.8654 27.3883V13.365C87.8654 8.81195 87.3197 8.03719 83.5447 8.03719V6.71756H98.7791C104.418 6.71756 107.963 10.1779 107.963 14.4114C107.963 18.3733 104.873 21.6067 99.9152 22.062ZM96.0507 20.0124C100.006 20.0124 101.871 17.5075 101.871 14.4114C101.871 11.3169 100.008 8.76717 96.0507 8.76717H93.5489V20.0124H96.0507ZM114.477 34.0357V32.716C118.252 32.716 118.798 31.9413 118.798 27.3883V13.365C118.798 8.81195 118.252 8.03719 114.479 8.03719V6.71756H129.485C140.035 6.71756 144.627 12.8649 144.627 20.3766C144.627 27.8898 140.035 34.0357 129.485 34.0357H114.48H114.477ZM124.481 8.76567V26.8419C124.481 31.2591 125.073 31.9875 128.848 31.9875H129.303C136.668 31.9875 138.17 25.5223 138.17 20.3766C138.17 15.231 136.67 8.76717 129.303 8.76717H124.483L124.481 8.76567Z" fill="#00212B"/>
<path fill-rule="evenodd" clip-rule="evenodd" d="M333.257 6.71756H309.243V8.03868C313.016 8.03868 313.562 8.81195 313.562 13.365V27.3883C313.562 31.9413 313.016 32.716 309.243 32.716V34.0357H323.612V32.716C319.837 32.716 319.247 31.9413 319.247 27.3883V20.6035H321.747C326.295 20.6035 327.022 21.1499 327.022 24.9744H328.342V14.1845H327.022C327.022 17.9628 326.295 18.5554 321.747 18.5554H319.247V8.76567H326.977C331.115 8.76567 331.614 9.81362 332.206 12.226L332.434 13.1366H333.799L333.473 8.04167C336.448 8.0969 337.663 8.92988 339.722 12.0438L346.316 22.0157V27.3883C346.316 31.9413 345.725 32.716 341.951 32.716V34.0357H356.139V32.716C352.364 32.716 351.818 31.9413 351.818 27.3883V21.8799L358.321 12.0453C360.23 9.08513 361.095 8.03868 364.87 8.03868V6.71756H353.865V8.03868C357.458 8.03868 357.958 9.03886 356.321 11.4975L351.228 19.1928L346.135 11.4975C344.497 9.08513 345.361 8.03868 348.544 8.03868V6.71756H333.259H333.257ZM200.042 22.062L204.455 26.8882C208.455 31.3038 210.183 32.3518 212.958 32.716V34.0357H203.09L194.995 22.062H193.677V27.3883C193.677 31.9413 194.268 32.716 198.043 32.716V34.0357H183.672V32.716C187.445 32.716 187.991 31.9413 187.991 27.3883V13.365C187.991 8.81195 187.445 8.03719 183.672 8.03719V6.71756H198.904C204.543 6.71756 208.09 10.1779 208.09 14.4114C208.09 18.3733 204.998 21.6067 200.042 22.062ZM196.178 20.0124C200.134 20.0124 201.998 17.5075 201.998 14.4114C201.998 11.3169 200.134 8.76717 196.178 8.76717H193.677V20.0124H196.178ZM214.608 34.0357V32.716C218.384 32.716 218.929 31.9413 218.929 27.3883V13.365C218.929 8.81195 218.384 8.03719 214.608 8.03719V6.71756H238.028L238.389 13.1366H237.069L236.843 12.226C236.206 9.81362 235.751 8.76567 231.568 8.76567H224.61V18.5554H227.111C231.659 18.5554 232.386 17.9628 232.386 14.1845H233.704V24.9744H232.386C232.386 21.1499 231.659 20.6035 227.111 20.6035H224.61V26.6598C224.61 31.2128 225.202 31.9875 228.975 31.9875H233.068C237.251 31.9875 237.752 30.9396 238.343 28.5258L238.571 27.6152H239.889L239.527 34.0357H214.607H214.608ZM247.18 32.6698C246.514 33.2152 246.05 33.9684 245.862 34.8089H244.542V24.7923H245.906C246.771 29.6648 250.545 32.7608 254.273 32.7608C256.912 32.7608 258.821 31.2591 258.821 28.2526C258.821 26.6135 257.594 24.7475 255.456 23.6548L251.136 21.3783C247.27 19.4197 244.952 17.2806 244.952 12.7738C244.952 9.03886 248.453 5.9443 252.864 5.9443C255.548 5.9443 257.048 6.80862 258.412 7.81029C258.958 7.35499 259.504 6.67129 259.73 5.7159H261.003V15.7325H259.686C259.366 12.0901 257.911 7.94613 253.137 7.94613C251.274 7.94613 249.455 9.31353 249.455 11.5885C249.455 12.9559 250.682 15.0041 253.093 16.2341L257.457 18.4643C260.686 20.1482 263.323 22.9263 263.323 26.5239C263.323 31.486 258.958 34.8089 254.273 34.8089C250.817 34.8089 248.635 32.9877 247.18 32.6698ZM271.476 32.6698C270.809 33.2149 270.345 33.9682 270.156 34.8089H268.838V24.7923H270.203C271.067 29.6648 274.839 32.7608 278.57 32.7608C281.207 32.7608 283.117 31.2591 283.117 28.2526C283.117 26.6135 281.889 24.7475 279.752 23.6548L275.431 21.3783C271.567 19.4197 269.247 17.2806 269.247 12.7738C269.247 9.03886 272.749 5.9443 277.159 5.9443C279.843 5.9443 281.343 6.80862 282.707 7.81029C283.253 7.35499 283.798 6.67129 284.027 5.7159H285.3V15.7325H283.98C283.663 12.0901 282.206 7.94613 277.432 7.94613C275.568 7.94613 273.75 9.31353 273.75 11.5885C273.75 12.9559 274.977 15.0041 277.387 16.2341L281.753 18.4643C284.981 20.1482 287.618 22.9263 287.618 26.5239C287.618 31.486 283.253 34.8089 278.568 34.8089C275.114 34.8089 272.931 32.9877 271.476 32.6698ZM305.684 34.0357H291.314V32.716C295.089 32.716 295.635 31.9413 295.635 27.3883V13.365C295.635 8.81195 295.089 8.03719 291.314 8.03719V6.71756H305.684V8.03868C301.91 8.03868 301.318 8.81195 301.318 13.365V27.3883C301.318 31.9413 301.91 32.716 305.684 32.716V34.0357ZM169.093 0C176.118 0 180.538 4.31118 180.538 9.58671C180.538 14.8622 176.118 19.1167 169.093 19.1167H162.578V25.7536C162.578 31.4263 163.314 32.3906 168.017 32.3906V34.0357H150.114V32.3906C154.816 32.3906 155.496 31.4263 155.496 25.7536V8.28201C155.496 2.6094 154.816 1.64506 150.114 1.64506V0H169.093ZM165.694 16.564C170.623 16.564 172.946 13.4441 172.946 9.58671C172.946 5.72934 170.623 2.55267 165.694 2.55267H162.578V16.564H165.694Z" fill="white"/>
</svg>
